<?xml version="1.0" encoding="UTF-8"?>
<svg version="1.1" xmlns="http://www.w3.org/2000/svg" width="310" height="364">
<path d="M0 0 C1.39273888 -0.038619 1.39273888 -0.038619 2.81361389 -0.07801819 C7.07449291 -0.16269804 11.33520883 -0.22809711 15.59667969 -0.27441406 C17.83622628 -0.30597977 20.07560763 -0.35365574 22.31445312 -0.41796875 C43.31951802 -1.01270076 43.31951802 -1.01270076 49.87670898 4.15063477 C51.81772511 6.14242872 53.17404245 7.76483295 54.41186523 10.24047852 C54.66581055 9.68618164 54.91975586 9.13188477 55.18139648 8.56079102 C55.69766602 7.47411133 55.69766602 7.47411133 56.22436523 6.36547852 C56.56081055 5.64618164 56.89725586 4.92688477 57.24389648 4.18579102 C58.41186523 2.24047852 58.41186523 2.24047852 61.41186523 0.24047852 C64.34537125 0.04027019 67.18419038 -0.04281687 70.1184082 -0.03417969 C71.00814331 -0.03929062 71.89787842 -0.04440155 72.8145752 -0.04966736 C75.7611358 -0.06358792 78.70746312 -0.06260457 81.65405273 -0.06030273 C83.70045051 -0.06418865 85.74684749 -0.0685231 87.79324341 -0.07328796 C92.08557752 -0.08075572 96.37782939 -0.08045511 100.67016602 -0.07519531 C106.17047941 -0.06940358 111.67045576 -0.08632192 117.17071342 -0.10953999 C121.39834563 -0.12427406 125.62589663 -0.1251494 129.85354996 -0.12203026 C131.88133537 -0.12254375 133.90912529 -0.12778676 135.93688583 -0.13784218 C138.77365737 -0.15018118 141.60977215 -0.14342976 144.4465332 -0.13183594 C145.28411163 -0.13947968 146.12169006 -0.14712341 146.98464966 -0.15499878 C151.57760013 -0.11351702 154.71540713 0.18803194 158.41186523 3.24047852 C158.41186523 3.90047852 158.41186523 4.56047852 158.41186523 5.24047852 C159.03061523 5.32297852 159.64936523 5.40547852 160.28686523 5.49047852 C162.41186523 6.24047852 162.41186523 6.24047852 163.58862305 7.99755859 C164.58620782 10.71547417 164.35878501 12.07523106 163.70874023 14.87719727 C163.50700195 15.75811035 163.30526367 16.63902344 163.09741211 17.54663086 C162.03015201 21.74041573 160.88345075 25.90158709 159.66186523 30.05297852 C159.12667257 31.90062422 158.59151739 33.74828078 158.05639648 35.59594727 C157.7839209 36.53100098 157.51144531 37.46605469 157.23071289 38.42944336 C155.92692049 42.90525304 154.63519568 47.38447834 153.34936523 51.86547852 C153.10178467 52.72729736 152.8542041 53.58911621 152.59912109 54.47705078 C150.6767644 61.21194111 148.87031283 67.97366854 147.14794922 74.76245117 C145.98053401 79.30697732 144.60693283 83.73354279 143.09228516 88.17407227 C141.93725291 91.68185587 141.11456323 95.26849046 140.25561523 98.85766602 C139.32598204 101.48301903 138.55474873 102.50181755 136.41186523 104.24047852 C134.5501833 104.62917519 134.5501833 104.62917519 132.42243958 104.64834595 C131.61370392 104.66258606 130.80496826 104.67682617 129.97172546 104.6914978 C128.64622429 104.69181503 128.64622429 104.69181503 127.29394531 104.69213867 C125.89341919 104.70966187 125.89341919 104.70966187 124.46459961 104.72753906 C121.37009481 104.76120068 118.27606841 104.77187119 115.18139648 104.77954102 C113.03008351 104.79171912 110.87877225 104.80420505 108.72746277 104.81698608 C104.21231278 104.83948594 99.69733182 104.84901842 95.18212891 104.85131836 C89.40587733 104.85659329 83.63103976 104.90786467 77.85516834 104.97083473 C73.40863055 105.01177623 68.96243162 105.02096115 64.51572227 105.02143478 C62.38709229 105.02681135 60.25845849 105.04364282 58.13001442 105.0722847 C55.14456771 105.10909727 52.16230628 105.10126742 49.17675781 105.08276367 C48.30321152 105.10321747 47.42966522 105.12367126 46.52964783 105.14474487 C40.44210414 105.04147903 37.30131627 103.2106963 32.83075142 99.12969017 C31.41186523 97.24047852 31.41186523 97.24047852 31.28710938 93.27172852 C31.61919539 91.91675733 31.99458423 90.57168271 32.41186523 89.24047852 C32.7114917 88.01329102 33.01111816 86.78610352 33.31982422 85.52172852 C33.85845093 83.65000977 33.85845093 83.65000977 34.40795898 81.74047852 C34.60156509 81.06049805 34.7951712 80.38051758 34.99464417 79.67993164 C35.60735419 77.53181737 36.2279961 75.38610222 36.84936523 73.24047852 C37.46553398 71.09441967 38.08000568 68.94788605 38.69337463 66.80102539 C39.25078922 64.85290911 39.81251889 62.906029 40.37451172 60.95922852 C41.46015878 57.0673537 42.44857325 53.16417755 43.41186523 49.24047852 C43.24170898 49.92754883 43.07155273 50.61461914 42.89624023 51.32250977 C42.53272461 52.6740918 42.53272461 52.6740918 42.16186523 54.05297852 C41.92983398 54.94629883 41.69780273 55.83961914 41.45874023 56.76000977 C40.20308345 59.7351667 39.15103333 60.57667859 36.41186523 62.24047852 C34.01487732 62.61470032 34.01487732 62.61470032 31.32373047 62.61279297 C29.80712074 62.62213615 29.80712074 62.62213615 28.25987244 62.63166809 C27.174366 62.62245834 26.08885956 62.6132486 24.97045898 62.60375977 C23.8512355 62.60425827 22.73201202 62.60475677 21.57887268 62.60527039 C19.21434757 62.60293102 16.84981991 62.59321063 14.48535156 62.57666016 C10.85971908 62.55304595 7.23482081 62.55610323 3.60913086 62.56274414 C1.3129025 62.55716812 -0.98332275 62.55005873 -3.27954102 62.54125977 C-4.36707169 62.54217117 -5.45460236 62.54308258 -6.5750885 62.54402161 C-7.58300949 62.53448959 -8.59093048 62.52495758 -9.62939453 62.51513672 C-10.96031883 62.50822563 -10.96031883 62.50822563 -12.31813049 62.50117493 C-14.58813477 62.24047852 -14.58813477 62.24047852 -17.58813477 60.24047852 C-17.58813477 59.58047852 -17.58813477 58.92047852 -17.58813477 58.24047852 C-19.23813477 57.58047852 -20.88813477 56.92047852 -22.58813477 56.24047852 C-24.3266433 49.40234494 -22.43009003 44.08629041 -20.33813477 37.49047852 C-19.70700678 35.43346879 -19.0767934 33.37617822 -18.44750977 31.31860352 C-18.13555664 30.31055664 -17.82360352 29.30250977 -17.50219727 28.26391602 C-16.09706909 23.61618436 -14.84056703 18.93117461 -13.58813477 14.24047852 C-13.08906978 12.40689043 -12.58919021 10.57352367 -12.08813477 8.74047852 C-11.87157227 7.94641602 -11.65500977 7.15235352 -11.43188477 6.33422852 C-10.48591202 3.98681466 -9.55247233 2.81965185 -7.58813477 1.24047852 C-4.78209919 0.30513332 -2.91459702 0.07826534 0 0 Z M52.41186523 14.24047852 C51.56960523 16.8003473 50.73787972 19.36286867 49.91186523 21.92797852 C49.67338867 22.64920898 49.43491211 23.37043945 49.18920898 24.11352539 C47.96787529 27.93455508 47.09110946 31.17489907 47.41186523 35.24047852 C49.13275293 32.65914697 49.87699154 31.11253645 50.70092773 28.22875977 C50.92006836 27.47143555 51.13920898 26.71411133 51.36499023 25.93383789 C51.58670898 25.1481543 51.80842773 24.3624707 52.03686523 23.55297852 C52.26631836 22.75569336 52.49577148 21.9584082 52.73217773 21.13696289 C53.2967276 19.17279982 53.85491511 17.20681005 54.41186523 15.24047852 C53.75186523 14.91047852 53.09186523 14.58047852 52.41186523 14.24047852 Z " fill="#1DE0F0" transform="translate(67.588134765625,110.759521484375)"/>
<path d="M0 0 C3.12864156 -0.30192678 6.0598836 -0.40917249 9.19140625 -0.38818359 C10.62080032 -0.39606903 10.62080032 -0.39606903 12.07907104 -0.40411377 C15.240379 -0.41735668 18.40118661 -0.40856044 21.5625 -0.3984375 C23.75203549 -0.400457 25.94157033 -0.40336739 28.13110352 -0.40713501 C32.72451163 -0.41156419 37.31774498 -0.40510816 41.91113281 -0.39111328 C47.80973724 -0.37402119 53.70793221 -0.38385918 59.60652161 -0.40183067 C64.12914129 -0.41265244 68.65166332 -0.40922955 73.17428589 -0.4014473 C75.34968107 -0.39944084 77.52508502 -0.40192009 79.70046997 -0.40888596 C82.7367514 -0.41647397 85.77236247 -0.40493336 88.80859375 -0.38818359 C90.16765335 -0.39729263 90.16765335 -0.39729263 91.5541687 -0.40658569 C94.05249023 -0.38095093 94.05249023 -0.38095093 98 0 C98.99 1.485 98.99 1.485 100 3 C100.680625 3.2475 101.36125 3.495 102.0625 3.75 C104 5 104 5 104.76953125 7.953125 C105.33470344 12.89445247 103.96130352 17.27549372 102.625 22 C102.35679443 22.98693848 102.08858887 23.97387695 101.81225586 24.99072266 C99.11904164 34.80468352 96.2652547 44.57573554 93.40014648 54.34082031 C90.63261087 63.77470435 87.95325002 73.23039008 85.38305664 82.72021484 C81.73444169 95.98353161 81.73444169 95.98353161 79 102 C75.59478859 103.7026057 71.70607881 103.12864821 67.96044922 103.11352539 C67.02381439 103.11367142 66.08717957 103.11381744 65.12216187 103.1139679 C62.01631378 103.11326944 58.91052515 103.10548015 55.8046875 103.09765625 C53.65520256 103.09579183 51.5057172 103.09436804 49.35623169 103.09336853 C43.69104851 103.08954522 38.02589085 103.07971651 32.36071777 103.06866455 C26.58292994 103.05844644 20.805138 103.05387005 15.02734375 103.04882812 C3.6848846 103.03809409 -7.65755558 103.02101989 -19 103 C-19.28875 102.35160156 -19.5775 101.70320313 -19.875 101.03515625 C-20.431875 100.02775391 -20.431875 100.02775391 -21 99 C-22.32303717 98.6278958 -23.65737935 98.29369827 -25 98 C-27.28203409 94.57694886 -27.07348215 93.2118053 -26.45849609 89.27050781 C-25.64361279 85.23514322 -24.49351543 81.31620012 -23.3125 77.375 C-22.76314668 75.49773964 -22.21500591 73.6201241 -21.66796875 71.7421875 C-21.38872559 70.78666992 -21.10948242 69.83115234 -20.82177734 68.84667969 C-19.5412304 64.4107981 -18.33097483 59.95663079 -17.125 55.5 C-16.63030658 53.6796608 -16.13551146 51.85934923 -15.640625 50.0390625 C-15.38087891 49.08290039 -15.12113281 48.12673828 -14.85351562 47.14160156 C-14.57185547 46.10487305 -14.29019531 45.06814453 -14 44 C-13.67708984 42.81116211 -13.35417969 41.62232422 -13.02148438 40.39746094 C-11.97614053 36.55567466 -10.92594098 32.71525852 -9.875 28.875 C-9.55031738 27.67810547 -9.22563477 26.48121094 -8.89111328 25.24804688 C-3.34195885 5.01293827 -3.34195885 5.01293827 0 0 Z " fill="#0EF3BF" transform="translate(91,0)"/>
<path d="M0 0 C1.39273888 -0.038619 1.39273888 -0.038619 2.81361389 -0.07801819 C7.07449291 -0.16269804 11.33520883 -0.22809711 15.59667969 -0.27441406 C17.83622628 -0.30597977 20.07560763 -0.35365574 22.31445312 -0.41796875 C43.31951802 -1.01270076 43.31951802 -1.01270076 49.87670898 4.15063477 C51.81772511 6.14242872 53.17404245 7.76483295 54.41186523 10.24047852 C54.66581055 9.68618164 54.91975586 9.13188477 55.18139648 8.56079102 C55.69766602 7.47411133 55.69766602 7.47411133 56.22436523 6.36547852 C56.56081055 5.64618164 56.89725586 4.92688477 57.24389648 4.18579102 C58.41186523 2.24047852 58.41186523 2.24047852 61.41186523 0.24047852 C64.34537125 0.04027019 67.18419038 -0.04281687 70.1184082 -0.03417969 C71.00814331 -0.03929062 71.89787842 -0.04440155 72.8145752 -0.04966736 C75.7611358 -0.06358792 78.70746312 -0.06260457 81.65405273 -0.06030273 C83.70045051 -0.06418865 85.74684749 -0.0685231 87.79324341 -0.07328796 C92.08557752 -0.08075572 96.37782939 -0.08045511 100.67016602 -0.07519531 C106.17047941 -0.06940358 111.67045576 -0.08632192 117.17071342 -0.10953999 C121.39834563 -0.12427406 125.62589663 -0.1251494 129.85354996 -0.12203026 C131.88133537 -0.12254375 133.90912529 -0.12778676 135.93688583 -0.13784218 C138.77365737 -0.15018118 141.60977215 -0.14342976 144.4465332 -0.13183594 C145.28411163 -0.13947968 146.12169006 -0.14712341 146.98464966 -0.15499878 C151.57760013 -0.11351702 154.71540713 0.18803194 158.41186523 3.24047852 C158.41186523 3.90047852 158.41186523 4.56047852 158.41186523 5.24047852 C156.69298347 5.24927788 156.69298347 5.24927788 154.93937683 5.258255 C144.15323805 5.31540628 133.36730235 5.38812788 122.58137035 5.47619343 C117.03586968 5.52096849 111.49044369 5.56020882 105.94482422 5.58691406 C100.59547567 5.6128759 95.24641343 5.65322756 89.89724159 5.70366478 C87.85389065 5.72038178 85.81049014 5.73186585 83.76708031 5.73809242 C80.91033101 5.74768105 78.05432227 5.77567705 75.19775391 5.80810547 C74.34827179 5.80667038 73.49878967 5.80523529 72.62356567 5.80375671 C68.36791677 5.73533479 68.36791677 5.73533479 64.72864246 7.6242857 C62.98187993 9.76823609 62.43050516 11.70424407 61.66186523 14.36547852 C61.32155273 15.53079102 60.98124023 16.69610352 60.63061523 17.89672852 C60.22258201 19.34414367 59.81651879 20.79211487 59.41186523 22.24047852 C59.04834961 23.53791992 59.04834961 23.53791992 58.67749023 24.86157227 C57.53646563 28.93905725 56.39736748 33.01705508 55.26489258 37.09692383 C53.0275474 45.13054295 50.67907174 53.12675295 48.28686523 61.11547852 C45.29015163 71.13461998 42.50732403 81.18573769 39.91674805 91.31665039 C39.13217237 94.30623277 38.27428826 97.27250018 37.41186523 100.24047852 C34.54461837 99.66702914 33.55041373 99.37902701 31.41186523 97.24047852 C31.7807588 91.85067356 32.91199334 86.93893396 34.40795898 81.74047852 C34.60156509 81.06049805 34.7951712 80.38051758 34.99464417 79.67993164 C35.60735419 77.53181737 36.2279961 75.38610222 36.84936523 73.24047852 C37.46553398 71.09441967 38.08000568 68.94788605 38.69337463 66.80102539 C39.25078922 64.85290911 39.81251889 62.906029 40.37451172 60.95922852 C41.46015878 57.0673537 42.44857325 53.16417755 43.41186523 49.24047852 C43.24170898 49.92754883 43.07155273 50.61461914 42.89624023 51.32250977 C42.53272461 52.6740918 42.53272461 52.6740918 42.16186523 54.05297852 C41.92983398 54.94629883 41.69780273 55.83961914 41.45874023 56.76000977 C40.20308345 59.7351667 39.15103333 60.57667859 36.41186523 62.24047852 C34.01487732 62.61470032 34.01487732 62.61470032 31.32373047 62.61279297 C29.80712074 62.62213615 29.80712074 62.62213615 28.25987244 62.63166809 C27.174366 62.62245834 26.08885956 62.6132486 24.97045898 62.60375977 C23.8512355 62.60425827 22.73201202 62.60475677 21.57887268 62.60527039 C19.21434757 62.60293102 16.84981991 62.59321063 14.48535156 62.57666016 C10.85971908 62.55304595 7.23482081 62.55610323 3.60913086 62.56274414 C1.3129025 62.55716812 -0.98332275 62.55005873 -3.27954102 62.54125977 C-4.36707169 62.54217117 -5.45460236 62.54308258 -6.5750885 62.54402161 C-7.58300949 62.53448959 -8.59093048 62.52495758 -9.62939453 62.51513672 C-10.96031883 62.50822563 -10.96031883 62.50822563 -12.31813049 62.50117493 C-14.58813477 62.24047852 -14.58813477 62.24047852 -17.58813477 60.24047852 C-17.58813477 59.58047852 -17.58813477 58.92047852 -17.58813477 58.24047852 C-19.23813477 57.58047852 -20.88813477 56.92047852 -22.58813477 56.24047852 C-24.3266433 49.40234494 -22.43009003 44.08629041 -20.33813477 37.49047852 C-19.70700678 35.43346879 -19.0767934 33.37617822 -18.44750977 31.31860352 C-18.13555664 30.31055664 -17.82360352 29.30250977 -17.50219727 28.26391602 C-16.09706909 23.61618436 -14.84056703 18.93117461 -13.58813477 14.24047852 C-13.08906978 12.40689043 -12.58919021 10.57352367 -12.08813477 8.74047852 C-11.87157227 7.94641602 -11.65500977 7.15235352 -11.43188477 6.33422852 C-10.48591202 3.98681466 -9.55247233 2.81965185 -7.58813477 1.24047852 C-4.78209919 0.30513332 -2.91459702 0.07826534 0 0 Z M52.41186523 14.24047852 C51.56960523 16.8003473 50.73787972 19.36286867 49.91186523 21.92797852 C49.67338867 22.64920898 49.43491211 23.37043945 49.18920898 24.11352539 C47.96787529 27.93455508 47.09110946 31.17489907 47.41186523 35.24047852 C49.13275293 32.65914697 49.87699154 31.11253645 50.70092773 28.22875977 C50.92006836 27.47143555 51.13920898 26.71411133 51.36499023 25.93383789 C51.58670898 25.1481543 51.80842773 24.3624707 52.03686523 23.55297852 C52.26631836 22.75569336 52.49577148 21.9584082 52.73217773 21.13696289 C53.2967276 19.17279982 53.85491511 17.20681005 54.41186523 15.24047852 C53.75186523 14.91047852 53.09186523 14.58047852 52.41186523 14.24047852 Z " fill="#1BE8DC" transform="translate(67.588134765625,110.759521484375)"/>
<path d="M0 0 C1.71212929 0.00349709 1.71212929 0.00349709 3.45884705 0.00706482 C5.87050861 0.01680451 8.2821472 0.0385964 10.69360352 0.0715332 C14.39178192 0.12095261 18.08863056 0.13301408 21.78710938 0.13867188 C24.12892045 0.15275716 26.47071994 0.1689613 28.8125 0.1875 C29.92190445 0.1928627 31.0313089 0.1982254 32.17433167 0.20375061 C33.20227341 0.21973801 34.23021515 0.2357254 35.28930664 0.25219727 C36.64687828 0.26815697 36.64687828 0.26815697 38.03187561 0.28443909 C40.33984375 0.55859375 40.33984375 0.55859375 43.33984375 2.55859375 C43.33984375 3.21859375 43.33984375 3.87859375 43.33984375 4.55859375 C44.98984375 5.21859375 46.63984375 5.87859375 48.33984375 6.55859375 C48.76349666 13.64207035 47.22183265 19.54308209 45.21484375 26.30859375 C44.8993457 27.39664307 44.58384766 28.48469238 44.25878906 29.60571289 C43.60980194 31.83697229 42.95615469 34.06688153 42.29785156 36.29541016 C41.39186827 39.38138687 40.51391076 42.473857 39.64453125 45.5703125 C39.12713307 47.37914415 38.6089484 49.18775109 38.08984375 50.99609375 C37.8563623 51.8355957 37.62288086 52.67509766 37.38232422 53.54003906 C35.68275781 59.32998437 35.68275781 59.32998437 32.33984375 61.55859375 C30.00495911 61.79910278 30.00495911 61.79910278 27.22583008 61.78564453 C26.18497757 61.78549347 25.14412506 61.78534241 24.07173157 61.78518677 C22.9497789 61.7748642 21.82782623 61.76454163 20.671875 61.75390625 C18.94695076 61.74966141 18.94695076 61.74966141 17.18717957 61.74533081 C13.50879579 61.73412208 9.83065413 61.70901599 6.15234375 61.68359375 C3.6608108 61.67356486 1.16927405 61.66443885 -1.32226562 61.65625 C-7.43497866 61.63418048 -13.54755016 61.60069599 -19.66015625 61.55859375 C-19.94890625 60.91019531 -20.23765625 60.26179688 -20.53515625 59.59375 C-21.09203125 58.58634766 -21.09203125 58.58634766 -21.66015625 57.55859375 C-22.98319342 57.18648955 -24.3175356 56.85229202 -25.66015625 56.55859375 C-28.42869823 52.40578078 -27.56388287 49.23583335 -26.66015625 44.55859375 C-25.49796976 39.89408449 -24.15416033 35.2911021 -22.78515625 30.68359375 C-22.07884086 28.2697027 -21.37310393 25.85564232 -20.66796875 23.44140625 C-20.32411133 22.28157227 -19.98025391 21.12173828 -19.62597656 19.92675781 C-18.48949023 15.96341972 -17.49823109 11.97167732 -16.56201172 7.95654297 C-13.31051949 -0.68887032 -8.32240954 -0.14679326 0 0 Z " fill="#17EBD5" transform="translate(202.66015625,41.44140625)"/>
<path d="M0 0 C0.83096191 -0.00630432 1.66192383 -0.01260864 2.51806641 -0.019104 C3.85877197 -0.01303131 3.85877197 -0.01303131 5.2265625 -0.00683594 C6.14743652 -0.00874939 7.06831055 -0.01066284 8.01708984 -0.01263428 C9.96386997 -0.01399514 11.91065919 -0.01030557 13.85742188 -0.00195312 C16.84005078 0.00874776 19.82207736 -0.00185176 22.8046875 -0.01464844 C24.69531383 -0.01332683 26.58593979 -0.0107644 28.4765625 -0.00683594 C29.81726807 -0.01290863 29.81726807 -0.01290863 31.18505859 -0.019104 C32.43150146 -0.00964752 32.43150146 -0.00964752 33.703125 0 C34.79874756 0.00238678 34.79874756 0.00238678 35.91650391 0.00482178 C37.8515625 0.25878906 37.8515625 0.25878906 40.8515625 2.25878906 C41.1015625 5.32128906 41.1015625 5.32128906 40.8515625 8.25878906 C39.8515625 9.25878906 39.8515625 9.25878906 36.34155273 9.37231445 C34.78107828 9.37215533 33.22059857 9.36646049 31.66015625 9.35644531 C30.84031754 9.35503036 30.02047882 9.35361542 29.17579651 9.35215759 C26.54684868 9.34654195 23.91798477 9.33398686 21.2890625 9.32128906 C19.51106893 9.31627607 17.73307404 9.31171282 15.95507812 9.30761719 C11.58718092 9.29741659 7.2194661 9.27784439 2.8515625 9.25878906 C2.8515625 16.18878906 2.8515625 23.11878906 2.8515625 30.25878906 C6.26435547 30.20658203 6.26435547 30.20658203 9.74609375 30.15332031 C11.95026393 30.12992247 14.15442026 30.11170727 16.35864258 30.09399414 C17.89028111 30.0789097 19.42187648 30.05843928 20.95336914 30.0324707 C23.15521904 29.99607059 25.35649783 29.97905993 27.55859375 29.96582031 C28.24307083 29.95033646 28.92754791 29.9348526 29.63276672 29.91889954 C32.51164923 29.91788096 34.40990791 29.95479874 36.8190918 31.61303711 C37.8515625 33.25878906 37.8515625 33.25878906 37.6640625 35.88378906 C36.8515625 38.25878906 36.8515625 38.25878906 34.8515625 39.25878906 C32.44317572 39.34518776 30.06422369 39.3744667 27.65625 39.35644531 C26.94880646 39.35503036 26.24136292 39.35361542 25.51248169 39.35215759 C23.25046581 39.34655507 20.98854852 39.33400224 18.7265625 39.32128906 C17.19401185 39.31627438 15.66145964 39.31171142 14.12890625 39.30761719 C10.36972303 39.29743522 6.61075326 39.27786049 2.8515625 39.25878906 C2.8515625 46.18878906 2.8515625 53.11878906 2.8515625 60.25878906 C15.0615625 60.25878906 27.2715625 60.25878906 39.8515625 60.25878906 C40.3465625 63.72378906 40.3465625 63.72378906 40.8515625 67.25878906 C37.78425809 69.30365867 37.15964033 69.51004821 33.703125 69.51757812 C32.87216309 69.52388245 32.04120117 69.53018677 31.18505859 69.53668213 C30.29125488 69.53263367 29.39745117 69.52858521 28.4765625 69.52441406 C27.55568848 69.52632751 26.63481445 69.52824097 25.68603516 69.5302124 C23.73925503 69.53157327 21.79246581 69.5278837 19.84570312 69.51953125 C16.86307422 69.50883036 13.88104764 69.51942989 10.8984375 69.53222656 C9.00781117 69.53090495 7.11718521 69.52834252 5.2265625 69.52441406 C4.33275879 69.52846252 3.43895508 69.53251099 2.51806641 69.53668213 C1.27162354 69.52722565 1.27162354 69.52722565 0 69.51757812 C-0.73041504 69.51598694 -1.46083008 69.51439575 -2.21337891 69.51275635 C-4.1484375 69.25878906 -4.1484375 69.25878906 -7.1484375 67.25878906 C-7.52938843 64.56408691 -7.52938843 64.56408691 -7.53662109 61.09667969 C-7.54607758 59.80193726 -7.55553406 58.50719482 -7.5652771 57.17321777 C-7.55990758 55.75382177 -7.55375468 54.33442855 -7.546875 52.91503906 C-7.54889504 51.46537123 -7.55180589 50.01570439 -7.55557251 48.56604004 C-7.55999921 45.5261875 -7.55355402 42.4865992 -7.53955078 39.44677734 C-7.52245832 35.54572772 -7.53229771 31.64529722 -7.55026817 27.74427032 C-7.56109691 24.75029821 -7.55766395 21.75647344 -7.5498848 18.76249695 C-7.54788025 17.32394844 -7.55035099 15.88538665 -7.55732346 14.44685364 C-7.56492209 12.43820442 -7.55129149 10.42950845 -7.53662109 8.42089844 C-7.53423431 7.27665405 -7.53184753 6.13240967 -7.52938843 4.95349121 C-7.40367462 4.0642395 -7.27796082 3.17498779 -7.1484375 2.25878906 C-4.08113309 0.21391946 -3.45651533 0.00752991 0 0 Z " fill="#666666" transform="translate(174.1484375,243.7412109375)"/>
<path d="M0 0 C2.4375 0.8125 2.4375 0.8125 4.4375 2.8125 C4.66455078 5.42626953 4.66455078 5.42626953 4.6328125 8.6953125 C4.62781738 9.74605957 4.62282227 10.79680664 4.61767578 11.87939453 C4.59036377 13.88815674 4.59036377 13.88815674 4.5625 15.9375 C4.52125 20.18625 4.48 24.435 4.4375 28.8125 C15.9875 28.8125 27.5375 28.8125 39.4375 28.8125 C39.31892515 20.39070007 39.31892515 20.39070007 39.16723633 11.96948242 C39.15974365 10.92123291 39.15225098 9.8729834 39.14453125 8.79296875 C39.1288208 7.71942139 39.11311035 6.64587402 39.09692383 5.53979492 C39.4375 2.8125 39.4375 2.8125 40.76049805 0.9230957 C42.4375 -0.1875 42.4375 -0.1875 45.5625 0.0625 C48.4375 0.8125 48.4375 0.8125 49.4375 1.8125 C49.54736361 3.82641553 49.58662091 5.8442098 49.59863281 7.86108398 C49.60824036 9.15590195 49.6178479 10.45071991 49.62774658 11.78477478 C49.63259365 13.20937933 49.6368727 14.6339859 49.640625 16.05859375 C49.6463736 17.50968937 49.65213137 18.96078495 49.65789795 20.41188049 C49.66841629 23.4576147 49.6742536 26.50332244 49.67773438 29.54907227 C49.6832235 33.45793595 49.70725651 37.36645203 49.73570633 41.27520657 C49.75429984 44.27343274 49.75953652 47.27157462 49.76107025 50.26985359 C49.76410436 51.7112118 49.77215832 53.15256827 49.78525543 54.59387016 C49.80224691 56.60735099 49.79860093 58.62097434 49.79394531 60.63452148 C49.79941376 62.35541237 49.79941376 62.35541237 49.80499268 64.11106873 C49.68372009 65.00254105 49.56244751 65.89401337 49.4375 66.8125 C46.4375 68.8125 46.4375 68.8125 43.875 68.5625 C41.4375 67.8125 41.4375 67.8125 39.4375 65.8125 C39.21044922 63.01513672 39.21044922 63.01513672 39.2421875 59.4921875 C39.24718262 58.36022949 39.25217773 57.22827148 39.25732422 56.06201172 C39.27553223 54.61842285 39.29374023 53.17483398 39.3125 51.6875 C39.35375 47.10875 39.395 42.53 39.4375 37.8125 C27.8875 37.8125 16.3375 37.8125 4.4375 37.8125 C4.55609665 46.89248155 4.55609665 46.89248155 4.70776367 55.97192383 C4.71525635 57.10138428 4.72274902 58.23084473 4.73046875 59.39453125 C4.75403442 61.13053589 4.75403442 61.13053589 4.77807617 62.90161133 C4.4375 65.8125 4.4375 65.8125 3.11450195 67.7253418 C1.4375 68.8125 1.4375 68.8125 -1.6875 68.625 C-2.63625 68.356875 -3.585 68.08875 -4.5625 67.8125 C-5.92685476 65.08379047 -5.70476986 62.90444163 -5.72363281 59.84985352 C-5.73804413 57.97264366 -5.73804413 57.97264366 -5.75274658 56.05751038 C-5.75759383 54.68547751 -5.76187284 53.31344254 -5.765625 51.94140625 C-5.77137606 50.53897601 -5.7771338 49.13654579 -5.78289795 47.7341156 C-5.79340672 44.79271071 -5.79925039 41.85133314 -5.80273438 38.90991211 C-5.80822325 35.13905351 -5.83225972 31.36855526 -5.86070633 27.59780979 C-5.87931925 24.70076945 -5.88453754 21.80381621 -5.88607025 18.90672112 C-5.88909967 17.51642827 -5.89713798 16.12613705 -5.91025543 14.73590279 C-5.92728811 12.792188 -5.9235949 10.84832487 -5.91894531 8.90454102 C-5.92259094 7.79804703 -5.92623657 6.69155304 -5.92999268 5.55152893 C-5.5625 2.8125 -5.5625 2.8125 -4.20037842 0.92002869 C-2.5625 -0.1875 -2.5625 -0.1875 0 0 Z " fill="#666666" transform="translate(99.5625,244.1875)"/>
<path d="M0 0 C0.88349121 0.00725098 1.76698242 0.01450195 2.67724609 0.02197266 C17.1413104 0.3288104 17.1413104 0.3288104 22.1875 5.375 C21.8125 8.5 21.8125 8.5 21.1875 11.375 C17.94591394 12.35729881 16.30012147 12.40889713 13.0078125 11.41796875 C8.97091008 10.31586962 5.27287668 10.042767 1.125 10.0625 C0.44373047 10.04638672 -0.23753906 10.03027344 -0.93945312 10.01367188 C-5.64583925 10.00915085 -8.80973185 10.93051603 -12.8125 13.375 C-15.346612 15.909112 -15.20507035 17.83730017 -15.46875 21.3046875 C-14.61711418 23.99139575 -13.15169774 25.01181642 -10.78271484 26.44189453 C-6.82842538 28.31466954 -2.60067441 29.29711248 1.625 30.375 C9.72852306 32.4507793 17.74171106 34.51733986 23.1875 41.375 C25.67136344 46.46100608 25.38851587 50.98043703 24.1875 56.375 C21.52265566 62.54621846 16.30568028 66.25933646 10.23046875 68.75976562 C6.38717824 69.91716191 2.54805845 69.85894108 -1.4375 69.8125 C-2.31325684 69.80782715 -3.18901367 69.8031543 -4.09130859 69.79833984 C-11.69125718 69.62666056 -21.17682847 69.01067153 -26.8125 63.375 C-27.0625 60.875 -27.0625 60.875 -26.8125 58.375 C-26.1525 57.715 -25.4925 57.055 -24.8125 56.375 C-21.2220472 56.65660414 -18.03880728 57.30241608 -14.609375 58.40234375 C-10.36363141 59.48998794 -6.60530858 59.70685693 -2.25 59.6875 C-1.15655273 59.71166992 -1.15655273 59.71166992 -0.04101562 59.73632812 C4.73299925 59.74062517 8.09665001 59.08768254 12.1875 56.375 C13.80403773 52.43908206 14.5455566 50.4491698 13.1875 46.375 C8.26886054 43.74001458 3.33298286 42.09531178 -2.01904297 40.61669922 C-19.81079309 35.69855949 -19.81079309 35.69855949 -24.515625 28.921875 C-27.11829746 23.81060257 -27.29294127 19.17828466 -25.8125 13.75 C-23.49367008 7.63672111 -19.32553231 4.69599321 -13.69140625 1.734375 C-9.18970896 -0.11814092 -4.80945211 -0.07703098 0 0 Z " fill="#666666" transform="translate(56.8125,243.625)"/>
<path d="M0 0 C8.58 0 17.16 0 26 0 C26 17.82 26 35.64 26 54 C17.42 54 8.84 54 0 54 C0 36.18 0 18.36 0 0 Z " fill="#3EBCC3" transform="translate(158,132)"/>
<path d="M0 0 C8.58 0 17.16 0 26 0 C26 17.82 26 35.64 26 54 C17.42 54 8.84 54 0 54 C0 36.18 0 18.36 0 0 Z " fill="#36C5AD" transform="translate(118,37)"/>
<path d="M0 0 C6.70169861 3.3508493 9.58225398 16.47181368 12.3125 23.125 C12.84533331 24.41758011 13.37821122 25.71014184 13.91113281 27.00268555 C17.90190046 36.70261402 21.77256319 46.4457912 25.5 56.25 C28.43524497 50.56174257 30.97309569 44.83048856 33.3125 38.875 C33.65506836 38.01229492 33.99763672 37.14958984 34.35058594 36.26074219 C36.06816288 31.92484979 37.76202015 27.58038865 39.43359375 23.2265625 C39.73998779 22.43040527 40.04638184 21.63424805 40.36206055 20.81396484 C40.93394523 19.32363681 41.5021129 17.83187441 42.06567383 16.33837891 C47.10405271 3.18063152 47.10405271 3.18063152 51.5 0.25 C56.04054054 0.79054054 56.04054054 0.79054054 57.5 2.25 C57.8544551 7.33674163 57.23464446 10.60268427 54.9375 15.125 C52.55821233 20.01083957 50.35109038 24.90051834 48.3125 29.9375 C47.72960169 31.36215723 47.14624207 32.78662578 46.5625 34.2109375 C45.4335194 36.96851814 44.30554757 39.72649475 43.1796875 42.48535156 C41.73411774 46.01534602 40.27432428 49.53920962 38.8125 53.0625 C38.34884033 54.20227295 37.88518066 55.3420459 37.4074707 56.51635742 C36.95976318 57.58990479 36.51205566 58.66345215 36.05078125 59.76953125 C35.65544189 60.72964111 35.26010254 61.68975098 34.8527832 62.67895508 C33.38155005 65.47512117 31.94259114 67.25162164 29.5 69.25 C26.0579838 69.68025203 23.6507668 69.82913206 20.51391602 68.25048828 C17.49169959 65.2484224 16.31653456 61.72922719 14.77734375 57.8046875 C14.07596269 56.07755383 13.37395727 54.35067359 12.67138672 52.62402344 C12.31357117 51.7343689 11.95575562 50.84471436 11.58709717 49.92810059 C9.86335134 45.68159453 8.05600604 41.47150681 6.25390625 37.2578125 C5.55475305 35.61092552 4.8561847 33.96379013 4.15820312 32.31640625 C3.09860496 29.8161416 2.03756048 27.31654539 0.97192383 24.81884766 C-0.08432381 22.34201455 -1.13453129 19.86269585 -2.18359375 17.3828125 C-2.5033165 16.63701935 -2.82303925 15.8912262 -3.15245056 15.12283325 C-6.16844661 7.96187357 -6.16844661 7.96187357 -6.5 4.25 C-4.54619477 1.3944385 -3.4772425 0.34772425 0 0 Z " fill="#666666" transform="translate(227.5,243.75)"/>
<path d="M0 0 C0.88973511 -0.00511093 1.77947021 -0.01022186 2.69616699 -0.01548767 C5.6427276 -0.02940823 8.58905491 -0.02842488 11.53564453 -0.02612305 C13.58204231 -0.03000896 15.62843928 -0.03434341 17.67483521 -0.03910828 C21.96716932 -0.04657604 26.25942119 -0.04627542 30.55175781 -0.04101562 C36.05207121 -0.0352239 41.55204755 -0.05214223 47.05230522 -0.0753603 C51.27993742 -0.09009437 55.50748843 -0.09096971 59.73514175 -0.08785057 C61.76292716 -0.08836407 63.79071709 -0.09360708 65.81847763 -0.10366249 C68.65524916 -0.1160015 71.49136395 -0.10925007 74.328125 -0.09765625 C75.16570343 -0.10529999 76.00328186 -0.11294373 76.86624146 -0.12081909 C81.45919192 -0.07933734 84.59699892 0.22221163 88.29345703 3.2746582 C88.29345703 3.9346582 88.29345703 4.5946582 88.29345703 5.2746582 C86.57457527 5.28345757 86.57457527 5.28345757 84.82096863 5.29243469 C74.03482984 5.34958597 63.24889415 5.42230757 52.46296215 5.51037312 C46.91746148 5.55514818 41.37203549 5.5943885 35.82641602 5.62109375 C30.47706746 5.64705559 25.12800522 5.68740725 19.77883339 5.73784447 C17.73548245 5.75456147 15.69208194 5.76604554 13.6486721 5.77227211 C10.79192281 5.78186074 7.93591406 5.80985674 5.0793457 5.84228516 C3.80512253 5.84013252 3.80512253 5.84013252 2.50515747 5.8379364 C-1.75049144 5.76951448 -1.75049144 5.76951448 -5.38976574 7.65846539 C-7.13652827 9.80241578 -7.68790305 11.73842375 -8.45654297 14.3996582 C-8.79685547 15.5649707 -9.13716797 16.7302832 -9.48779297 17.9309082 C-9.89582619 19.37832336 -10.30188941 20.82629456 -10.70654297 22.2746582 C-10.94888672 23.13961914 -11.19123047 24.00458008 -11.44091797 24.89575195 C-12.58194257 28.97323694 -13.72104072 33.05123477 -14.85351562 37.13110352 C-17.0908608 45.16472264 -19.43933646 53.16093264 -21.83154297 61.1496582 C-24.82825657 71.16879967 -27.61108417 81.21991738 -30.20166016 91.35083008 C-30.98623584 94.34041246 -31.84411994 97.30667986 -32.70654297 100.2746582 C-35.57378983 99.70120883 -36.56799447 99.4132067 -38.70654297 97.2746582 C-38.4112073 89.4625533 -35.79924746 81.99008499 -33.64404297 74.5246582 C-33.23822036 73.10204456 -32.83295512 71.67927182 -32.42822266 70.25634766 C-31.19497394 65.92700712 -29.95130659 61.60069925 -28.70654297 57.2746582 C-27.62576361 53.51260611 -26.54622646 49.75019851 -25.4675293 45.98754883 C-24.798271 43.65379132 -24.12755609 41.32045099 -23.45532227 38.98754883 C-21.98735649 33.86985637 -20.55121234 28.75079597 -19.23779297 23.59106445 C-19.01768555 22.72650635 -18.79757813 21.86194824 -18.57080078 20.97119141 C-18.18097837 19.41856406 -17.79915136 17.86388983 -17.42822266 16.30664062 C-14.7174502 5.43930188 -11.94398256 -0.03515836 0 0 Z " fill="#999999" transform="translate(137.70654296875,110.725341796875)"/>
<path d="M0 0 C3.14003713 -0.28599346 6.08188693 -0.37784161 9.22314453 -0.34057617 C10.65735748 -0.34123329 10.65735748 -0.34123329 12.12054443 -0.34190369 C15.29150579 -0.33980806 18.46194313 -0.31644045 21.6328125 -0.29296875 C23.82713533 -0.28737555 26.02146189 -0.28310415 28.21578979 -0.28010559 C33.99943329 -0.26863511 39.78285182 -0.23914893 45.56640625 -0.20599365 C51.46481279 -0.17534023 57.36325557 -0.16161037 63.26171875 -0.14648438 C74.84124484 -0.11428139 86.42060373 -0.06305843 98 0 C98.99 1.98 98.99 1.98 100 4 C52.975 4.495 52.975 4.495 5 5 C4.01 8.96 3.02 12.92 2 17 C1.08482541 20.15568604 0.15429284 23.29820893 -0.8125 26.4375 C-5.10260551 40.56349012 -9.17408956 54.74484718 -12.92578125 69.0234375 C-14.51741453 74.99401092 -16.25642525 80.92457351 -17.98242188 86.85742188 C-18.22927734 87.71142578 -18.47613281 88.56542969 -18.73046875 89.4453125 C-18.95114014 90.20344238 -19.17181152 90.96157227 -19.39916992 91.74267578 C-20.03897314 94.14642246 -20.53606876 96.55675445 -21 99 C-22.875 98.6875 -22.875 98.6875 -25 98 C-27.28203409 94.57694886 -27.07348215 93.2118053 -26.45849609 89.27050781 C-25.64361279 85.23514322 -24.49351543 81.31620012 -23.3125 77.375 C-22.76314668 75.49773964 -22.21500591 73.6201241 -21.66796875 71.7421875 C-21.38872559 70.78666992 -21.10948242 69.83115234 -20.82177734 68.84667969 C-19.5412304 64.4107981 -18.33097483 59.95663079 -17.125 55.5 C-16.63030658 53.6796608 -16.13551146 51.85934923 -15.640625 50.0390625 C-15.38087891 49.08290039 -15.12113281 48.12673828 -14.85351562 47.14160156 C-14.57185547 46.10487305 -14.29019531 45.06814453 -14 44 C-13.67708984 42.81116211 -13.35417969 41.62232422 -13.02148438 40.39746094 C-11.97614053 36.55567466 -10.92594098 32.71525852 -9.875 28.875 C-9.55031738 27.67810547 -9.22563477 26.48121094 -8.89111328 25.24804688 C-3.34195885 5.01293827 -3.34195885 5.01293827 0 0 Z " fill="#999A99" transform="translate(91,0)"/>
<path d="M0 0 C2.4375 0.75 2.4375 0.75 4.4375 2.75 C4.69819641 5.36204529 4.69819641 5.36204529 4.7121582 8.71264648 C4.72169022 9.96411972 4.73122223 11.21559296 4.74104309 12.50498962 C4.74078167 13.87702462 4.73984465 15.24905962 4.73828125 16.62109375 C4.74216693 18.02352526 4.74650134 19.4259556 4.75126648 20.8283844 C4.75873435 23.76982434 4.75843349 26.71114428 4.75317383 29.65258789 C4.74737996 33.42347951 4.76430484 37.19387983 4.7875185 40.96469021 C4.80224575 43.86174902 4.80312893 46.75868927 4.80000877 49.65577888 C4.80052255 51.04606156 4.80577095 52.43635077 4.81582069 53.82659721 C4.82814604 55.77034642 4.81946458 57.71419465 4.80981445 59.65795898 C4.81044388 60.76445297 4.8110733 61.87094696 4.8117218 63.01097107 C4.4375 65.75 4.4375 65.75 3.10954285 67.64637756 C1.4375 68.75 1.4375 68.75 -1.6875 68.5 C-4.5625 67.75 -4.5625 67.75 -5.5625 66.75 C-5.67236361 64.73608447 -5.71162091 62.7182902 -5.72363281 60.70141602 C-5.73324036 59.40659805 -5.7428479 58.11178009 -5.75274658 56.77772522 C-5.75759365 55.35312067 -5.7618727 53.9285141 -5.765625 52.50390625 C-5.7713736 51.05281063 -5.77713137 49.60171505 -5.78289795 48.15061951 C-5.79341629 45.1048853 -5.7992536 42.05917756 -5.80273438 39.01342773 C-5.8082235 35.10456405 -5.83225651 31.19604797 -5.86070633 27.28729343 C-5.87929984 24.28906726 -5.88453652 21.29092538 -5.88607025 18.29264641 C-5.88910436 16.8512882 -5.89715832 15.40993173 -5.91025543 13.96862984 C-5.92724691 11.95514901 -5.92360093 9.94152566 -5.91894531 7.92797852 C-5.92441376 6.20708763 -5.92441376 6.20708763 -5.92999268 4.45143127 C-5.80872009 3.55995895 -5.68744751 2.66848663 -5.5625 1.75 C-2.5625 -0.25 -2.5625 -0.25 0 0 Z " fill="#666666" transform="translate(12.5625,244.25)"/>
<path d="M0 0 C2.4375 0.8125 2.4375 0.8125 4.4375 3.8125 C4.70492554 6.46214294 4.70492554 6.46214294 4.72802734 9.68920898 C4.7471669 11.50140175 4.7471669 11.50140175 4.76669312 13.35020447 C4.76891876 14.65647293 4.77114441 15.96274139 4.7734375 17.30859375 C4.77986495 18.66236004 4.78659327 20.01612494 4.79360962 21.36988831 C4.80558242 24.20699281 4.80929042 27.04397554 4.80810547 29.88110352 C4.80790218 33.51411584 4.83521329 37.14634677 4.86964989 40.77917385 C4.89190172 43.57505368 4.89594358 46.37074486 4.89488602 49.16670418 C4.89838975 51.15647797 4.92006273 53.1461929 4.94198608 55.135849 C4.93583282 56.34712967 4.92967957 57.55841034 4.92333984 58.80639648 C4.92618988 59.87212387 4.92903992 60.93785126 4.93197632 62.03587341 C4.31514375 65.4995655 3.21726852 66.71506355 0.4375 68.8125 C-3.8625 68.5125 -3.8625 68.5125 -5.5625 66.8125 C-5.67236361 64.79858447 -5.71162091 62.7807902 -5.72363281 60.76391602 C-5.73324036 59.46909805 -5.7428479 58.17428009 -5.75274658 56.84022522 C-5.75759365 55.41562067 -5.7618727 53.9910141 -5.765625 52.56640625 C-5.7713736 51.11531063 -5.77713137 49.66421505 -5.78289795 48.21311951 C-5.79341629 45.1673853 -5.7992536 42.12167756 -5.80273438 39.07592773 C-5.8082235 35.16706405 -5.83225651 31.25854797 -5.86070633 27.34979343 C-5.87929984 24.35156726 -5.88453652 21.35342538 -5.88607025 18.35514641 C-5.88910436 16.9137882 -5.89715832 15.47243173 -5.91025543 14.03112984 C-5.92724691 12.01764901 -5.92360093 10.00402566 -5.91894531 7.99047852 C-5.92441376 6.26958763 -5.92441376 6.26958763 -5.92999268 4.51393127 C-5.80872009 3.62245895 -5.68744751 2.73098663 -5.5625 1.8125 C-2.5625 -0.1875 -2.5625 -0.1875 0 0 Z " fill="#666666" transform="translate(301.5625,244.1875)"/>
<path d="M0 0 C0.94785873 -0.00960754 1.89571747 -0.01921509 2.87229919 -0.02911377 C3.89420853 -0.03336365 4.91611786 -0.03761353 5.96899414 -0.04199219 C7.54651207 -0.0505423 7.54651207 -0.0505423 9.15589905 -0.05926514 C11.38094069 -0.06871325 13.60599632 -0.07524837 15.83105469 -0.07910156 C19.23730776 -0.08881914 22.64296052 -0.11984964 26.04907227 -0.15136719 C28.20987597 -0.15789611 30.37068399 -0.16314702 32.53149414 -0.16699219 C33.55137924 -0.17933899 34.57126434 -0.19168579 35.62205505 -0.20440674 C37.0485714 -0.19990509 37.0485714 -0.19990509 38.50390625 -0.1953125 C39.75608192 -0.20078094 39.75608192 -0.20078094 41.03355408 -0.20635986 C43.85418218 0.24765522 45.25310445 1.21475568 47.31665039 3.16113281 C47.31665039 3.82113281 47.31665039 4.48113281 47.31665039 5.16113281 C46.44674469 5.17326309 46.44674469 5.17326309 45.55926514 5.18563843 C39.52455676 5.27167974 33.49017702 5.37118326 27.45581055 5.47851562 C25.20358803 5.51680438 22.95130439 5.55165742 20.69897461 5.58300781 C17.46193592 5.62866019 14.22531803 5.68665496 10.98852539 5.74707031 C9.47739166 5.76439713 9.47739166 5.76439713 7.93572998 5.78207397 C6.52472015 5.81187851 6.52472015 5.81187851 5.08520508 5.84228516 C4.25913757 5.85560883 3.43307007 5.8689325 2.58197021 5.88265991 C0.05358234 6.19347144 -1.55408452 6.7671464 -3.68334961 8.16113281 C-4.94544936 11.13508198 -4.94544936 11.13508198 -5.74584961 14.66113281 C-6.04620117 15.82644531 -6.34655273 16.99175781 -6.65600586 18.19238281 C-6.81488281 18.82120361 -6.97375977 19.45002441 -7.13745117 20.09790039 C-7.97477935 23.26259646 -8.93734479 26.38759025 -9.88720703 29.52001953 C-11.23545667 33.99268575 -12.52160516 38.48295933 -13.80834961 42.97363281 C-14.07260742 43.88822266 -14.33686523 44.8028125 -14.60913086 45.74511719 C-14.86307617 46.63134766 -15.11702148 47.51757812 -15.37866211 48.43066406 C-15.60569824 49.22061768 -15.83273438 50.01057129 -16.06665039 50.82446289 C-16.7082621 53.2555261 -17.21452166 55.69144345 -17.68334961 58.16113281 C-19.33334961 57.50113281 -20.98334961 56.84113281 -22.68334961 56.16113281 C-24.42185815 49.32299923 -22.52530487 44.0069447 -20.43334961 37.41113281 C-19.80222163 35.35412309 -19.17200824 33.29683251 -18.54272461 31.23925781 C-18.23077148 30.23121094 -17.91881836 29.22316406 -17.59741211 28.18457031 C-16.19228394 23.53683866 -14.93578187 18.85182891 -13.68334961 14.16113281 C-13.18428462 12.32754473 -12.68440505 10.49417797 -12.18334961 8.66113281 C-11.96678711 7.86707031 -11.75022461 7.07300781 -11.52709961 6.25488281 C-10.58112686 3.90746895 -9.64768717 2.74030615 -7.68334961 1.16113281 C-4.81645952 0.20550278 -2.97892726 0.02438898 0 0 Z " fill="#999A99" transform="translate(67.683349609375,110.8388671875)"/>
<path d="M0 0 C1.71212929 0.00349709 1.71212929 0.00349709 3.45884705 0.00706482 C5.87050861 0.01680451 8.2821472 0.0385964 10.69360352 0.0715332 C14.39178192 0.12095261 18.08863056 0.13301408 21.78710938 0.13867188 C24.12892045 0.15275716 26.47071994 0.1689613 28.8125 0.1875 C29.92190445 0.1928627 31.0313089 0.1982254 32.17433167 0.20375061 C33.20227341 0.21973801 34.23021515 0.2357254 35.28930664 0.25219727 C36.64687828 0.26815697 36.64687828 0.26815697 38.03187561 0.28443909 C40.33984375 0.55859375 40.33984375 0.55859375 43.33984375 2.55859375 C43.33984375 3.21859375 43.33984375 3.87859375 43.33984375 4.55859375 C44.32984375 5.05359375 44.32984375 5.05359375 45.33984375 5.55859375 C28.17984375 5.88859375 11.01984375 6.21859375 -6.66015625 6.55859375 C-9.39711856 12.71675895 -11.53349827 18.08032574 -13.09765625 24.49609375 C-13.51699282 26.15395904 -13.93760041 27.81150328 -14.359375 29.46875 C-14.67720947 30.72582764 -14.67720947 30.72582764 -15.00146484 32.00830078 C-16.27054895 36.92188586 -17.66323149 41.80150516 -19.04858398 46.68334961 C-20.06348574 50.28934836 -20.99491188 53.87082603 -21.66015625 57.55859375 C-23.53515625 57.24609375 -23.53515625 57.24609375 -25.66015625 56.55859375 C-28.42869823 52.40578078 -27.56388287 49.23583335 -26.66015625 44.55859375 C-25.49796976 39.89408449 -24.15416033 35.2911021 -22.78515625 30.68359375 C-22.07884086 28.2697027 -21.37310393 25.85564232 -20.66796875 23.44140625 C-20.32411133 22.28157227 -19.98025391 21.12173828 -19.62597656 19.92675781 C-18.48949023 15.96341972 -17.49823109 11.97167732 -16.56201172 7.95654297 C-13.31051949 -0.68887032 -8.32240954 -0.14679326 0 0 Z " fill="#999E9D" transform="translate(202.66015625,41.44140625)"/>
<path d="M0 0 C1.6328125 0.90234375 1.6328125 0.90234375 3.7578125 3.33984375 C4.3828125 6.90234375 4.3828125 6.90234375 3.7578125 10.33984375 C-0.19133144 14.42516506 -4.67835012 14.54310706 -10.1171875 14.65234375 C-11.33148438 14.68972656 -12.54578125 14.72710937 -13.796875 14.765625 C-17.84907642 14.26484274 -19.44676719 13.2706103 -22.2421875 10.33984375 C-22.9296875 6.83984375 -22.9296875 6.83984375 -22.2421875 3.33984375 C-17.00538532 -2.6670764 -7.19282058 -2.11774682 0 0 Z " fill="#33C8A6" transform="translate(140.2421875,20.66015625)"/>
<path d="M0 0 C1.77697266 0.00193359 1.77697266 0.00193359 3.58984375 0.00390625 C7.5177066 0.49433682 11.18178786 1.55678786 14.0625 4.4375 C14.375 7.8125 14.375 7.8125 14.0625 11.4375 C11.25410216 14.34273914 8.37817332 15.33877704 4.35546875 15.640625 C-5.96629079 15.79642514 -5.96629079 15.79642514 -10.9375 12.4375 C-11.9375 11.4375 -11.9375 11.4375 -12.3125 8.125 C-11.9375 4.4375 -11.9375 4.4375 -9.84765625 2.234375 C-6.2945775 0.04052772 -4.14937751 -0.06757944 0 0 Z " fill="#40B9CB" transform="translate(169.9375,187.5625)"/>
<path d="M0 0 C2.39698657 0.30254723 3.66339619 0.65686775 5.37207031 2.39868164 C5.77006836 2.97996826 6.16806641 3.56125488 6.578125 4.16015625 C7.01640625 4.78857422 7.4546875 5.41699219 7.90625 6.06445312 C8.57140625 7.05348633 8.57140625 7.05348633 9.25 8.0625 C9.70890625 8.72572266 10.1678125 9.38894531 10.640625 10.07226562 C11.77035676 11.70802307 12.88651173 13.35314234 14 15 C14.33 10.05 14.66 5.1 15 0 C15.99 0 16.98 0 18 0 C19.28968723 3.95160167 19.18380085 7.95274821 19.1875 12.0625 C19.19974609 12.78244141 19.21199219 13.50238281 19.22460938 14.24414062 C19.23519011 18.0426247 19.15755655 19.76366518 17 23 C15.296875 22.91015625 15.296875 22.91015625 13 22 C11.26326118 19.83482726 9.74910911 17.75452694 8.25 15.4375 C7.83878906 14.82197266 7.42757812 14.20644531 7.00390625 13.57226562 C5.99236489 12.05495359 4.99480211 10.52833914 4 9 C3.67 13.29 3.34 17.58 3 22 C1.68 22 0.36 22 -1 22 C-1.02887814 18.52085059 -1.04675687 15.04173169 -1.0625 11.5625 C-1.07087891 10.56927734 -1.07925781 9.57605469 -1.08789062 8.55273438 C-1.09111328 7.60849609 -1.09433594 6.66425781 -1.09765625 5.69140625 C-1.10289307 4.81685791 -1.10812988 3.94230957 -1.11352539 3.04125977 C-1 1 -1 1 0 0 Z " fill="#262626" transform="translate(126,341)"/>
<path d="M0 0 C1.91635217 -0.05423638 3.83314925 -0.09289963 5.75 -0.125 C7.35101563 -0.15980469 7.35101563 -0.15980469 8.984375 -0.1953125 C11.95022828 -0.00322356 13.55204664 0.36421808 16 2 C17.38550197 4.77100394 17.1877467 6.9334706 17 10 C16.01 11.485 16.01 11.485 15 13 C15.66 13.66 16.32 14.32 17 15 C17.125 18.625 17.125 18.625 17 22 C15.68 22 14.36 22 13 22 C12.34 19.69 11.68 17.38 11 15 C8.36 14.67 5.72 14.34 3 14 C3.185625 15.11375 3.37125 16.2275 3.5625 17.375 C4 21 4 21 3 23 C1.68 22.67 0.36 22.34 -1 22 C-1.02895225 18.70835171 -1.0467823 15.41673601 -1.0625 12.125 C-1.07506836 10.71927734 -1.07506836 10.71927734 -1.08789062 9.28515625 C-1.09111328 8.38925781 -1.09433594 7.49335938 -1.09765625 6.5703125 C-1.10289307 5.74289551 -1.10812988 4.91547852 -1.11352539 4.06298828 C-1 2 -1 2 0 0 Z M3 4 C3 6.31 3 8.62 3 11 C8.32170494 11.29562367 8.32170494 11.29562367 13 9 C12.67 7.35 12.34 5.7 12 4 C9.03 4 6.06 4 3 4 Z " fill="#0E0E0E" transform="translate(168,341)"/>
<path d="M0 0 C3.02508145 1.73602105 5.41790069 3.83580137 7 7 C7.53118173 10.79415519 7.85089348 14.46331178 5.953125 17.890625 C2.84487712 21.65709007 1.08299008 22.89170099 -3.75 23.375 C-7.10058068 23.35058775 -8.84894532 22.75601354 -11.4375 20.625 C-15.14829142 16.82370147 -15.39257459 14.47406195 -15.359375 9.328125 C-14.75455722 5.40995764 -12.83123243 3.69641184 -10 1 C-6.77140153 -0.61429923 -3.49006347 -0.59570657 0 0 Z M-10 5.5625 C-11.69829236 9.70208763 -11.69829236 13.29791237 -10 17.4375 C-7.30070449 19.54632462 -5.28460752 19.43993297 -1.9375 19.43359375 C0.5915973 18.86760625 1.48268122 18.08980409 3 16 C3.47307456 13.82504919 3.47307456 13.82504919 3.375 11.5 C3.38273437 10.7265625 3.39046875 9.953125 3.3984375 9.15625 C2.90166893 6.46785539 2.20414848 5.59077685 0 4 C-3.70004994 3.17196463 -6.97725043 3.2009769 -10 5.5625 Z " fill="#262626" transform="translate(114,341)"/>
<path d="M0 0 C3.02508145 1.73602105 5.41790069 3.83580137 7 7 C7.53118173 10.79415519 7.85089348 14.46331178 5.953125 17.890625 C2.84487712 21.65709007 1.08299008 22.89170099 -3.75 23.375 C-7.10058068 23.35058775 -8.84894532 22.75601354 -11.4375 20.625 C-15.14829142 16.82370147 -15.39257459 14.47406195 -15.359375 9.328125 C-14.75455722 5.40995764 -12.83123243 3.69641184 -10 1 C-6.77140153 -0.61429923 -3.49006347 -0.59570657 0 0 Z M-10 5.5625 C-11.69829236 9.70208763 -11.69829236 13.29791237 -10 17.4375 C-7.30070449 19.54632462 -5.28460752 19.43993297 -1.9375 19.43359375 C0.5915973 18.86760625 1.48268122 18.08980409 3 16 C3.47307456 13.82504919 3.47307456 13.82504919 3.375 11.5 C3.38273437 10.7265625 3.39046875 9.953125 3.3984375 9.15625 C2.90166893 6.46785539 2.20414848 5.59077685 0 4 C-3.70004994 3.17196463 -6.97725043 3.2009769 -10 5.5625 Z " fill="#1D1D1D" transform="translate(203,341)"/>
<path d="M0 0 C2.5 1 2.5 1 4 2 C4 2.99 4 3.98 4 5 C3.15695313 4.97679687 2.31390625 4.95359375 1.4453125 4.9296875 C0.34960938 4.91164063 -0.74609375 4.89359375 -1.875 4.875 C-2.96554688 4.85179687 -4.05609375 4.82859375 -5.1796875 4.8046875 C-8.1371051 4.69939466 -8.1371051 4.69939466 -10 7 C-10.318384 9.1398632 -10.318384 9.1398632 -10.25 11.5 C-10.25515625 12.2940625 -10.2603125 13.088125 -10.265625 13.90625 C-10.18939909 16.21892751 -10.18939909 16.21892751 -8 18 C-5.10116917 18.24339551 -5.10116917 18.24339551 -1.875 18.125 C-0.23144531 18.09792969 -0.23144531 18.09792969 1.4453125 18.0703125 C2.70988281 18.03550781 2.70988281 18.03550781 4 18 C4 18.99 4 19.98 4 21 C0.30858974 23.46094018 -3.71640046 23.83040989 -8 23 C-11.02089981 21.2524257 -13.41608883 19.16782234 -15 16 C-15.53118173 12.20584481 -15.85089348 8.53668822 -13.953125 5.109375 C-9.75418966 0.02125335 -6.38095799 -0.54225532 0 0 Z " fill="#222222" transform="translate(93,341)"/>
<path d="M0 0 C0.89460938 -0.00128906 1.78921875 -0.00257813 2.7109375 -0.00390625 C3.65195312 -0.00003906 4.59296875 0.00382813 5.5625 0.0078125 C6.97402344 0.00201172 6.97402344 0.00201172 8.4140625 -0.00390625 C9.75597656 -0.00197266 9.75597656 -0.00197266 11.125 0 C11.95128906 0.00112793 12.77757812 0.00225586 13.62890625 0.00341797 C15.5625 0.1328125 15.5625 0.1328125 16.5625 1.1328125 C16.6875 4.1328125 16.6875 4.1328125 16.5625 7.1328125 C14.97312444 8.72218806 13.32350154 8.26262393 11.125 8.265625 C9.78308594 8.26755859 9.78308594 8.26755859 8.4140625 8.26953125 C7.47304688 8.26566406 6.53203125 8.26179687 5.5625 8.2578125 C4.15097656 8.26361328 4.15097656 8.26361328 2.7109375 8.26953125 C1.81632812 8.26824219 0.92171875 8.26695312 0 8.265625 C-0.82628906 8.26449707 -1.65257812 8.26336914 -2.50390625 8.26220703 C-4.4375 8.1328125 -4.4375 8.1328125 -5.4375 7.1328125 C-5.5625 4.1328125 -5.5625 4.1328125 -5.4375 1.1328125 C-3.84812444 -0.45656306 -2.19850154 0.00300107 0 0 Z " fill="#0AEFC7" transform="translate(293.4375,223.8671875)"/>
<path d="M0 0 C0.89460937 -0.00128906 1.78921875 -0.00257813 2.7109375 -0.00390625 C3.65195313 -0.00003906 4.59296875 0.00382813 5.5625 0.0078125 C6.97402344 0.00201172 6.97402344 0.00201172 8.4140625 -0.00390625 C9.75597656 -0.00197266 9.75597656 -0.00197266 11.125 0 C11.95128906 0.00112793 12.77757813 0.00225586 13.62890625 0.00341797 C15.5625 0.1328125 15.5625 0.1328125 16.5625 1.1328125 C16.6875 4.1328125 16.6875 4.1328125 16.5625 7.1328125 C14.97312444 8.72218806 13.32350154 8.26262393 11.125 8.265625 C9.78308594 8.26755859 9.78308594 8.26755859 8.4140625 8.26953125 C7.47304687 8.26566406 6.53203125 8.26179687 5.5625 8.2578125 C4.15097656 8.26361328 4.15097656 8.26361328 2.7109375 8.26953125 C1.81632813 8.26824219 0.92171875 8.26695312 0 8.265625 C-0.82628906 8.26449707 -1.65257812 8.26336914 -2.50390625 8.26220703 C-4.4375 8.1328125 -4.4375 8.1328125 -5.4375 7.1328125 C-5.5625 4.1328125 -5.5625 4.1328125 -5.4375 1.1328125 C-3.84812444 -0.45656306 -2.19850154 0.00300107 0 0 Z " fill="#0AEFC7" transform="translate(5.4375,223.8671875)"/>
<path d="M0 0 C5.94 0 11.88 0 18 0 C18 1.32 18 2.64 18 4 C15.69 4 13.38 4 11 4 C11 9.94 11 15.88 11 22 C9.68 22 8.36 22 7 22 C7 16.06 7 10.12 7 4 C4.69 4 2.38 4 0 4 C0 2.68 0 1.36 0 0 Z " fill="#131313" transform="translate(147,341)"/>
<path d="M0 0 C0.99 0.33 1.98 0.66 3 1 C3 6.94 3 12.88 3 19 C6.3 19 9.6 19 13 19 C13 20.32 13 21.64 13 23 C10.85423363 23.02685938 8.70837355 23.04633088 6.5625 23.0625 C5.36753906 23.07410156 4.17257813 23.08570313 2.94140625 23.09765625 C0 23 0 23 -1 22 C-1.09899523 20.45044441 -1.13079524 18.89646327 -1.1328125 17.34375 C-1.13410156 16.40402344 -1.13539063 15.46429688 -1.13671875 14.49609375 C-1.13285156 13.50738281 -1.12898437 12.51867187 -1.125 11.5 C-1.12886719 10.51128906 -1.13273438 9.52257812 -1.13671875 8.50390625 C-1.13542969 7.56417969 -1.13414062 6.62445313 -1.1328125 5.65625 C-1.13168457 4.78806641 -1.13055664 3.91988281 -1.12939453 3.02539062 C-1 1 -1 1 0 0 Z " fill="#0C0C0C" transform="translate(215,341)"/>
<path d="M0 0 C1.32 0 2.64 0 4 0 C4 1.98 4 3.96 4 6 C5.98 6 7.96 6 10 6 C10 7.32 10 8.64 10 10 C8.02 10 6.04 10 4 10 C4 11.65 4 13.3 4 15 C2.68 15 1.36 15 0 15 C0 13.35 0 11.7 0 10 C-1.65 10 -3.3 10 -5 10 C-5 8.68 -5 7.36 -5 6 C-3.35 6 -1.7 6 0 6 C0 4.02 0 2.04 0 0 Z " fill="#36DEFF" transform="translate(240,344)"/>
<path d="M0 0 C0.99 0 1.98 0 3 0 C4.28968723 3.95160167 4.18380085 7.95274821 4.1875 12.0625 C4.19974609 12.78244141 4.21199219 13.50238281 4.22460938 14.24414062 C4.23519011 18.0426247 4.15755655 19.76366518 2 23 C0.68 22.67 -0.64 22.34 -2 22 C-2.66 19.69 -3.32 17.38 -4 15 C-3.01 15.495 -3.01 15.495 -2 16 C-2 16.66 -2 17.32 -2 18 C-1.34 18 -0.68 18 0 18 C0 12.06 0 6.12 0 0 Z " fill="#444444" transform="translate(141,341)"/>
<path d="M0 0 C2.5 1 2.5 1 4 2 C4 2.99 4 3.98 4 5 C3.16855469 4.94199219 2.33710937 4.88398438 1.48046875 4.82421875 C0.39378906 4.77910156 -0.69289063 4.73398437 -1.8125 4.6875 C-2.89144531 4.62949219 -3.97039062 4.57148438 -5.08203125 4.51171875 C-6.04496094 4.67285156 -7.00789063 4.83398438 -8 5 C-9.79763674 7.43976266 -9.79763674 7.43976266 -11 10 C-11.66 10 -12.32 10 -13 10 C-13.33 11.32 -13.66 12.64 -14 14 C-14.36191797 10.92369721 -14.48225134 8.06793935 -14 5 C-9.74344218 -0.21428333 -6.55229145 -0.73977484 0 0 Z " fill="#181818" transform="translate(93,341)"/>
<path d="M0 0 C2 2 2 2 2.3125 4.4375 C2 7 2 7 0.8125 8.875 C-1 10 -1 10 -3.5625 9.8125 C-6 9 -6 9 -8 7 C-7.75 3.9375 -7.75 3.9375 -7 1 C-4.48718205 -0.25640898 -2.78302919 -0.20872719 0 0 Z " fill="#1FFAB2" transform="translate(202,348)"/>
<path d="M0 0 C0.33 0.99 0.66 1.98 1 3 C0.36191406 3.19335938 -0.27617188 3.38671875 -0.93359375 3.5859375 C-2.17302734 3.97652344 -2.17302734 3.97652344 -3.4375 4.375 C-4.67306641 4.75785156 -4.67306641 4.75785156 -5.93359375 5.1484375 C-8.17798016 5.80882227 -8.17798016 5.80882227 -9 8 C-9.66 8 -10.32 8 -11 8 C-11 10.31 -11 12.62 -11 15 C-11.66 14.67 -12.32 14.34 -13 14 C-13.36193496 10.92355285 -13.48731247 8.06750377 -13 5 C-9.03415244 0.26032853 -6.06847696 -0.6068477 0 0 Z " fill="#131313" transform="translate(113,341)"/>
<path d="M0 0 C0.33 0 0.66 0 1 0 C1.33 2.31 1.66 4.62 2 7 C2.33 5.02 2.66 3.04 3 1 C3.33 1 3.66 1 4 1 C4.13277344 1.63808594 4.26554687 2.27617187 4.40234375 2.93359375 C4.57894531 3.75988281 4.75554687 4.58617187 4.9375 5.4375 C5.11152344 6.26121094 5.28554687 7.08492188 5.46484375 7.93359375 C5.80752994 9.97661204 5.80752994 9.97661204 7 11 C8.34747084 11.23075082 9.70377565 11.41153063 11.0625 11.5625 C12.361875 11.706875 13.66125 11.85125 15 12 C15 12.33 15 12.66 15 13 C12.69 13 10.38 13 8 13 C8 13.66 8 14.32 8 15 C9.65 15 11.3 15 13 15 C13 15.33 13 15.66 13 16 C10.08083462 16.34751969 7.86804524 16.53280018 5.30078125 14.95703125 C3.11660035 13.15362765 1.27793808 11.55587616 0 9 C-0.06950541 7.45976004 -0.08452357 5.91665012 -0.0625 4.375 C-0.05347656 3.55773437 -0.04445313 2.74046875 -0.03515625 1.8984375 C-0.02355469 1.27195312 -0.01195313 0.64546875 0 0 Z " fill="#262626" transform="translate(99,348)"/>
<path d="M0 0 C0.33 0 0.66 0 1 0 C1.04898438 0.98742187 1.09796875 1.97484375 1.1484375 2.9921875 C1.22320312 4.27351563 1.29796875 5.55484375 1.375 6.875 C1.44460937 8.15117187 1.51421875 9.42734375 1.5859375 10.7421875 C1.67241106 14.08061699 1.67241106 14.08061699 4 16 C3.625 19.625 3.625 19.625 3 23 C1.68 22.67 0.36 22.34 -1 22 C-1.02895225 18.70835171 -1.0467823 15.41673601 -1.0625 12.125 C-1.07506836 10.71927734 -1.07506836 10.71927734 -1.08789062 9.28515625 C-1.09111328 8.38925781 -1.09433594 7.49335938 -1.09765625 6.5703125 C-1.10289307 5.74289551 -1.10812988 4.91547852 -1.11352539 4.06298828 C-1 2 -1 2 0 0 Z " fill="#636363" transform="translate(168,341)"/>
<path d="M0 0 C0.33 0 0.66 0 1 0 C1.47676175 4.76761753 1.83824 8.63232515 -1.3125 12.5 C-4 15 -4 15 -7 16 C-7 15.01 -7 14.02 -7 13 C-8.32 12.67 -9.64 12.34 -11 12 C-10.05125 11.814375 -9.1025 11.62875 -8.125 11.4375 C-4.61628301 10.26599195 -4.61628301 10.26599195 -3.625 6.375 C-3.41875 5.26125 -3.2125 4.1475 -3 3 C-2.67 3.99 -2.34 4.98 -2 6 C-1.34 6 -0.68 6 0 6 C0 4.02 0 2.04 0 0 Z " fill="#202020" transform="translate(209,348)"/>
<path d="M0 0 C0.99 0.33 1.98 0.66 3 1 C3 7.27 3 13.54 3 20 C2.34 20 1.68 20 1 20 C0.67 13.4 0.34 6.8 0 0 Z " fill="#515151" transform="translate(215,341)"/>
<path d="M0 0 C3.63 0.66 7.26 1.32 11 2 C11 2.99 11 3.98 11 5 C4.64948454 5.36637589 4.64948454 5.36637589 1.5625 3.625 C0 2 0 2 0 0 Z " fill="#161616" transform="translate(191,359)"/>
<path d="M0 0 C0.33 0 0.66 0 1 0 C1.33 2.31 1.66 4.62 2 7 C2.33 5.02 2.66 3.04 3 1 C3.33 1 3.66 1 4 1 C4.13277344 1.62648438 4.26554688 2.25296875 4.40234375 2.8984375 C4.57894531 3.71570313 4.75554687 4.53296875 4.9375 5.375 C5.19853516 6.59316406 5.19853516 6.59316406 5.46484375 7.8359375 C5.92330693 10.029463 5.92330693 10.029463 7 12 C4.625 12.1875 4.625 12.1875 2 12 C-0.13586678 8.79619983 -0.23132175 7.98060033 -0.125 4.3125 C-0.10695312 3.50425781 -0.08890625 2.69601562 -0.0703125 1.86328125 C-0.04710937 1.24839844 -0.02390625 0.63351562 0 0 Z " fill="#3C3C3C" transform="translate(188,348)"/>
<path d="M0 0 C0.33 0.99 0.66 1.98 1 3 C-0.5625 4.5625 -0.5625 4.5625 -3 6 C-6.75 5.6875 -6.75 5.6875 -10 5 C-10 4.34 -10 3.68 -10 3 C-7.69 3 -5.38 3 -3 3 C-3 2.34 -3 1.68 -3 1 C-2.01 0.67 -1.02 0.34 0 0 Z " fill="#101010" transform="translate(117,358)"/>
<path d="M0 0 C0.33 0 0.66 0 1 0 C1.33 2.31 1.66 4.62 2 7 C2.33 5.02 2.66 3.04 3 1 C3.33 1 3.66 1 4 1 C4.33 4.3 4.66 7.6 5 11 C4.01 11.33 3.02 11.66 2 12 C-0.13586678 8.79619983 -0.23132175 7.98060033 -0.125 4.3125 C-0.10695313 3.50425781 -0.08890625 2.69601562 -0.0703125 1.86328125 C-0.04710938 1.24839844 -0.02390625 0.63351562 0 0 Z " fill="#3B3B3B" transform="translate(99,348)"/>
<path d="M0 0 C4.875 4.625 4.875 4.625 6 8 C5.34 8 4.68 8 4 8 C3.67 7.67 3.34 7.34 3 7 C2.67 7.66 2.34 8.32 2 9 C-0.475 5.04 -0.475 5.04 -3 1 C-2.01 0.67 -1.02 0.34 0 0 Z " fill="#323232" transform="translate(135,351)"/>
<path d="M0 0 C0.99 0.495 0.99 0.495 2 1 C2 1.66 2 2.32 2 3 C3.32 2.67 4.64 2.34 6 2 C6 3.98 6 5.96 6 8 C4.68 7.67 3.36 7.34 2 7 C1.34 4.69 0.68 2.38 0 0 Z " fill="#111111" transform="translate(137,356)"/>
<path d="M0 0 C0.33 0 0.66 0 1 0 C1.08131463 1.43655854 1.13933559 2.8744483 1.1875 4.3125 C1.22230469 5.11300781 1.25710937 5.91351563 1.29296875 6.73828125 C0.93801608 9.47851584 0.10633718 10.29171079 -2 12 C-2.99 11.34 -3.98 10.68 -5 10 C-4.34 7.69 -3.68 5.38 -3 3 C-2.67 3 -2.34 3 -2 3 C-2 4.65 -2 6.3 -2 8 C-1.34 8 -0.68 8 0 8 C0 5.36 0 2.72 0 0 Z " fill="#383838" transform="translate(120,348)"/>
<path d="M0 0 C0.99 1.485 0.99 1.485 2 3 C2.66 3 3.32 3 4 3 C4 4.98 4 6.96 4 9 C3.34 9 2.68 9 2 9 C1.67 9.66 1.34 10.32 1 11 C-0.20272819 8.59454362 -0.10071472 7.05003047 -0.0625 4.375 C-0.05347656 3.55773437 -0.04445313 2.74046875 -0.03515625 1.8984375 C-0.02355469 1.27195312 -0.01195313 0.64546875 0 0 Z " fill="#353535" transform="translate(78,348)"/>
<path d="M0 0 C1.98 0.66 3.96 1.32 6 2 C5.34 4.64 4.68 7.28 4 10 C3.34 9.67 2.68 9.34 2 9 C2 7.68 2 6.36 2 5 C1.34 4.34 0.68 3.68 0 3 C0 2.01 0 1.02 0 0 Z " fill="#464646" transform="translate(178,341)"/>
<path d="M0 0 C0.33 0 0.66 0 1 0 C1.05399736 1.45792884 1.09279177 2.91642712 1.125 4.375 C1.14820313 5.18710937 1.17140625 5.99921875 1.1953125 6.8359375 C1 9 1 9 -1 11 C-3 9 -3 9 -3.125 5.875 C-3.08375 4.92625 -3.0425 3.9775 -3 3 C-2.67 3.99 -2.34 4.98 -2 6 C-1.34 6 -0.68 6 0 6 C0 4.02 0 2.04 0 0 Z " fill="#3C3C3C" transform="translate(209,348)"/>
<path d="M0 0 C0.99 0.33 1.98 0.66 3 1 C3 3.64 3 6.28 3 9 C2.34 9 1.68 9 1 9 C0.67 6.03 0.34 3.06 0 0 Z " fill="#090909" transform="translate(117,347)"/>
<path d="M0 0 C1.35015859 4.05047576 0.62084998 6.7920168 0 11 C-2 9 -2 9 -2.25 5.5 C-2 2 -2 2 0 0 Z " fill="#050505" transform="translate(191,346)"/>
<path d="M0 0 C1.32 0.33 2.64 0.66 4 1 C4.33 2.65 4.66 4.3 5 6 C3.0625 5.25 3.0625 5.25 1 4 C0.25 1.875 0.25 1.875 0 0 Z " fill="#181818" transform="translate(80,357)"/>
<path d="M0 0 C1.231394 3.69418201 0.64432764 6.2056261 0 10 C-0.66 9.67 -1.32 9.34 -2 9 C-2.125 5.625 -2.125 5.625 -2 2 C-1.34 1.34 -0.68 0.68 0 0 Z " fill="#050505" transform="translate(102,346)"/>
<path d="M0 0 C1.32 0 2.64 0 4 0 C4 1.65 4 3.3 4 5 C2.68 5 1.36 5 0 5 C0 3.35 0 1.7 0 0 Z " fill="#5EE4FF" transform="translate(240,354)"/>
<path d="M0 0 C0.66 0.33 1.32 0.66 2 1 C1.42655063 3.86724686 1.1385485 4.8614515 -1 7 C-1.33 6.34 -1.66 5.68 -2 5 C-2.99 5.495 -2.99 5.495 -4 6 C-2.84826645 3.53199953 -1.95216435 1.95216435 0 0 Z " fill="#2F2F2F" transform="translate(193,342)"/>
<path d="M0 0 C0.66 0.33 1.32 0.66 2 1 C1.42655063 3.86724686 1.1385485 4.8614515 -1 7 C-1.33 6.34 -1.66 5.68 -2 5 C-2.99 5.495 -2.99 5.495 -4 6 C-2.84826645 3.53199953 -1.95216435 1.95216435 0 0 Z " fill="#2D2D2D" transform="translate(104,342)"/>
<path d="M0 0 C0.99 0.33 1.98 0.66 3 1 C3 2.98 3 4.96 3 7 C2.34 7 1.68 7 1 7 C0.67 4.69 0.34 2.38 0 0 Z " fill="#0B0B0B" transform="translate(206,347)"/>
<path d="M0 0 C2.475 0.99 2.475 0.99 5 2 C5 2.99 5 3.98 5 5 C3.35 4.67 1.7 4.34 0 4 C0 2.68 0 1.36 0 0 Z " fill="#2A2A2A" transform="translate(92,341)"/>
</svg>
