<?xml version="1.0" encoding="UTF-8"?>
<svg version="1.1" xmlns="http://www.w3.org/2000/svg" width="459" height="110">
<path d="M0 0 C4.58321382 -0.08704 9.16621534 -0.14040632 13.75 -0.1875 C15.05195313 -0.21263672 16.35390625 -0.23777344 17.6953125 -0.26367188 C19.57089844 -0.27817383 19.57089844 -0.27817383 21.484375 -0.29296875 C22.63647461 -0.3086792 23.78857422 -0.32438965 24.97558594 -0.34057617 C28.26758786 0.0301328 29.60695077 0.77384798 32 3 C32.66 2.01 33.32 1.02 34 0 C36.11851501 -0.38095093 36.11851501 -0.38095093 38.76928711 -0.38818359 C40.2560923 -0.40236832 40.2560923 -0.40236832 41.77293396 -0.4168396 C43.38386681 -0.40773056 43.38386681 -0.40773056 45.02734375 -0.3984375 C46.67712975 -0.40274277 46.67712975 -0.40274277 48.36024475 -0.40713501 C50.68963128 -0.40917935 53.01903484 -0.40362375 55.34838867 -0.39111328 C58.91949813 -0.37508082 62.48947306 -0.39094236 66.06054688 -0.41015625 C68.32031501 -0.40817358 70.58008243 -0.40432943 72.83984375 -0.3984375 C73.91177475 -0.40451019 74.98370575 -0.41058289 76.08811951 -0.4168396 C77.08247513 -0.40738312 78.07683075 -0.39792664 79.10131836 -0.38818359 C79.97686874 -0.38579681 80.85241913 -0.38341003 81.75450134 -0.38095093 C84 0 84 0 85.81056213 1.28768921 C87.61054544 3.87893918 87.01659329 6.20284036 86.56933594 9.19970703 C85.3850215 15.02478703 83.75256772 20.72351224 82.125 26.4375 C81.59712891 28.3256543 81.59712891 28.3256543 81.05859375 30.25195312 C80.05204721 33.83847677 79.02798722 37.4195731 78 41 C77.71737305 42.0120752 77.43474609 43.02415039 77.14355469 44.06689453 C76.88735352 44.9639209 76.63115234 45.86094727 76.3671875 46.78515625 C76.1491748 47.55867432 75.93116211 48.33219238 75.70654297 49.12915039 C75 51 75 51 73 53 C70.88148499 53.26069641 70.88148499 53.26069641 68.23071289 53.2746582 C66.7439077 53.28895622 66.7439077 53.28895622 65.22706604 53.30354309 C63.61613319 53.30217598 63.61613319 53.30217598 61.97265625 53.30078125 C60.32287025 53.30720894 60.32287025 53.30720894 58.63975525 53.31376648 C56.31038095 53.31951746 53.9809887 53.32000442 51.65161133 53.31567383 C48.08058115 53.31251599 44.51038064 53.33595698 40.93945312 53.36132812 C38.67968855 53.36360118 36.41992174 53.36430459 34.16015625 53.36328125 C33.08822525 53.372491 32.01629425 53.38170074 30.91188049 53.39118958 C29.91752487 53.38496078 28.92316925 53.37873199 27.89868164 53.37231445 C26.58535606 53.37325859 26.58535606 53.37325859 25.24549866 53.3742218 C22.51632383 52.91939333 21.59704201 52.23571909 20 50 C20.27436816 43.55234833 22.37609621 37.2198579 24 31 C23.34 31.33 22.68 31.66 22 32 C17.90195531 32.29695976 13.7950376 32.27806005 9.6875 32.3125 C8.54603516 32.34150391 7.40457031 32.37050781 6.22851562 32.40039062 C1.49037177 32.43639055 -2.03108887 32.45682073 -6.35546875 30.41796875 C-8 28 -8 28 -7.96484375 24.79296875 C-6.8999854 20.60682519 -5.80801543 16.44848273 -4.5625 12.3125 C-4.34529297 11.56677734 -4.12808594 10.82105469 -3.90429688 10.05273438 C-2.85110715 6.50731192 -1.72222361 3.28613951 0 0 Z M30 8 C31 11 31 11 31 11 Z M29 11 C30 14 30 14 30 14 Z M28 14 C29 17 29 17 29 17 Z M27 18 C28 21 28 21 28 21 Z M26 22 C27 25 27 25 27 25 Z M25 25 C26 28 26 28 26 28 Z " fill="#1FDFEF" transform="translate(8,57)"/>
<path d="M0 0 C0.99127899 -0.00960754 1.98255798 -0.01921509 3.00387573 -0.02911377 C4.08299225 -0.03336365 5.16210876 -0.03761353 6.27392578 -0.04199219 C7.37519806 -0.04769226 8.47647034 -0.05339233 9.6111145 -0.05926514 C11.94646234 -0.06873195 14.28182364 -0.07525576 16.6171875 -0.07910156 C20.19701362 -0.08880693 23.77626584 -0.11981503 27.35595703 -0.15136719 C29.62027652 -0.15789682 31.88460014 -0.16314745 34.14892578 -0.16699219 C35.76152786 -0.18551239 35.76152786 -0.18551239 37.40670776 -0.20440674 C38.40429108 -0.20140564 39.40187439 -0.19840454 40.4296875 -0.1953125 C41.74753738 -0.20078094 41.74753738 -0.20078094 43.0920105 -0.20635986 C45.81151041 0.23737691 46.70240533 0.98636475 48.34423828 3.16113281 C48.97656573 9.75933225 46.1991842 16.9196481 44.34423828 23.16113281 C45.00423828 22.50113281 45.66423828 21.84113281 46.34423828 21.16113281 C50.61673691 20.67441317 54.92219402 20.79072858 59.21923828 20.78613281 C60.41677734 20.76164062 61.61431641 20.73714844 62.84814453 20.71191406 C63.99927734 20.70804688 65.15041016 20.70417969 66.33642578 20.70019531 C67.91979736 20.68786865 67.91979736 20.68786865 69.53515625 20.67529297 C73.04882482 21.28299334 74.24932801 22.31314196 76.34423828 25.16113281 C76.18472091 31.14622465 74.5287822 36.79513771 72.90673828 42.53613281 C72.68953125 43.34179688 72.47232422 44.14746094 72.24853516 44.97753906 C72.03390625 45.74710938 71.81927734 46.51667969 71.59814453 47.30957031 C71.40551025 48.00228027 71.21287598 48.69499023 71.0144043 49.40869141 C70.34423828 51.16113281 70.34423828 51.16113281 68.34423828 53.16113281 C63.90469478 53.6493103 59.43253845 53.53154094 54.96923828 53.53613281 C53.72400391 53.560625 52.47876953 53.58511719 51.19580078 53.61035156 C49.99955078 53.61421875 48.80330078 53.61808594 47.57080078 53.62207031 C46.4733252 53.63028809 45.37584961 53.63850586 44.24511719 53.64697266 C40.72714863 53.0577825 39.56433109 51.87786961 37.34423828 49.16113281 C36.95092819 49.81176697 36.5576181 50.46240112 36.15238953 51.13275146 C34.34423828 53.16113281 34.34423828 53.16113281 32.08528137 53.64215088 C31.20369858 53.63326843 30.32211578 53.62438599 29.41381836 53.61523438 C28.41300735 53.61493225 27.41219635 53.61463013 26.38105774 53.61431885 C25.30285263 53.59367371 24.22464752 53.57302856 23.11376953 53.55175781 C22.00821213 53.54609802 20.90265472 53.54043823 19.76359558 53.53460693 C16.22753864 53.51219076 12.69248969 53.46198278 9.15673828 53.41113281 C6.76157061 53.39107468 4.36638708 53.37282272 1.97119141 53.35644531 C-3.90480439 53.31230881 -9.78021105 53.24534409 -15.65576172 53.16113281 C-15.65576172 52.50113281 -15.65576172 51.84113281 -15.65576172 51.16113281 C-16.31576172 51.16113281 -16.97576172 51.16113281 -17.65576172 51.16113281 C-18.68921327 47.26763363 -18.55490197 44.75938755 -17.43310547 40.90722656 C-17.1445166 39.89660156 -16.85592773 38.88597656 -16.55859375 37.84472656 C-16.08075439 36.23791016 -16.08075439 36.23791016 -15.59326172 34.59863281 C-15.27470215 33.49777344 -14.95614258 32.39691406 -14.62792969 31.26269531 C-13.64870336 27.89201849 -12.65330812 24.52642719 -11.65576172 21.16113281 C-11.06551099 19.14172047 -10.4756452 17.12219557 -9.88623047 15.10253906 C-9.35224713 13.28839133 -8.81715394 11.47456977 -8.28076172 9.66113281 C-8.03060303 8.81349365 -7.78044434 7.96585449 -7.52270508 7.0925293 C-5.40277965 0.04206526 -5.40277965 0.04206526 0 0 Z M41.34423828 30.16113281 C42.34423828 33.16113281 42.34423828 33.16113281 42.34423828 33.16113281 Z M40.34423828 33.16113281 C41.34423828 35.16113281 41.34423828 35.16113281 41.34423828 35.16113281 Z M39.34423828 37.16113281 C40.34423828 40.16113281 40.34423828 40.16113281 40.34423828 40.16113281 Z M38.34423828 40.16113281 C39.34423828 43.16113281 39.34423828 43.16113281 39.34423828 43.16113281 Z M37.34423828 44.16113281 C38.34423828 46.16113281 38.34423828 46.16113281 38.34423828 46.16113281 Z " fill="#0EF2BF" transform="translate(28.65576171875,-0.1611328125)"/>
<path d="M0 0 C4.58321382 -0.08704 9.16621534 -0.14040632 13.75 -0.1875 C15.05195313 -0.21263672 16.35390625 -0.23777344 17.6953125 -0.26367188 C19.57089844 -0.27817383 19.57089844 -0.27817383 21.484375 -0.29296875 C22.63647461 -0.3086792 23.78857422 -0.32438965 24.97558594 -0.34057617 C28.26758786 0.0301328 29.60695077 0.77384798 32 3 C32.66 2.01 33.32 1.02 34 0 C36.13870239 -0.36076355 36.13870239 -0.36076355 38.81689453 -0.34057617 C39.81778107 -0.34034958 40.8186676 -0.34012299 41.84988403 -0.33988953 C43.47493362 -0.31666374 43.47493362 -0.31666374 45.1328125 -0.29296875 C46.79327103 -0.28660149 46.79327103 -0.28660149 48.48727417 -0.28010559 C52.0334271 -0.26327214 55.57901797 -0.2256108 59.125 -0.1875 C61.52473139 -0.17245922 63.92447167 -0.15876977 66.32421875 -0.14648438 C72.21633859 -0.11335338 78.10812915 -0.06310777 84 0 C84.495 0.99 84.495 0.99 85 2 C69.16 2.33 53.32 2.66 37 3 C34.59863871 9.3224185 34.59863871 9.3224185 32.5703125 15.70703125 C32.3345752 16.53243408 32.09883789 17.35783691 31.85595703 18.20825195 C31.61474121 19.06765381 31.37352539 19.92705566 31.125 20.8125 C30.74190674 22.16444458 30.74190674 22.16444458 30.35107422 23.54370117 C27.78235785 32.66463247 25.36961166 41.82561858 23 51 C21.515 50.505 21.515 50.505 20 50 C20.73690113 43.51527007 22.35318751 37.30760257 24 31 C23.34 31.33 22.68 31.66 22 32 C17.90195531 32.29695976 13.7950376 32.27806005 9.6875 32.3125 C8.54603516 32.34150391 7.40457031 32.37050781 6.22851562 32.40039062 C1.49037177 32.43639055 -2.03108887 32.45682073 -6.35546875 30.41796875 C-8 28 -8 28 -7.96484375 24.79296875 C-6.8999854 20.60682519 -5.80801543 16.44848273 -4.5625 12.3125 C-4.34529297 11.56677734 -4.12808594 10.82105469 -3.90429688 10.05273438 C-2.85110715 6.50731192 -1.72222361 3.28613951 0 0 Z M30 8 C31 11 31 11 31 11 Z M29 11 C30 14 30 14 30 14 Z M28 14 C29 17 29 17 29 17 Z M27 18 C28 21 28 21 28 21 Z M26 22 C27 25 27 25 27 25 Z M25 25 C26 28 26 28 26 28 Z " fill="#1DE7DB" transform="translate(8,57)"/>
<path d="M0 0 C1.11431396 0.00410889 2.22862793 0.00821777 3.37670898 0.01245117 C4.58391602 0.01438477 5.79112305 0.01631836 7.03491211 0.01831055 C8.30141602 0.03055664 9.56791992 0.04280273 10.87280273 0.05541992 C12.77835938 0.05638672 12.77835938 0.05638672 14.72241211 0.05737305 C24.1702022 0.10281939 24.1702022 0.10281939 25.31030273 1.24291992 C24.81809203 7.2438449 23.50654592 12.83551693 21.87280273 18.61791992 C21.6555957 19.42358398 21.43838867 20.22924805 21.21459961 21.05932617 C20.9999707 21.82889648 20.7853418 22.5984668 20.56420898 23.39135742 C20.37157471 24.08406738 20.17894043 24.77677734 19.98046875 25.49047852 C19.31030273 27.24291992 19.31030273 27.24291992 17.31030273 29.24291992 C14.60473633 29.4699707 14.60473633 29.4699707 11.20874023 29.43823242 C9.39116211 29.42856445 9.39116211 29.42856445 7.53686523 29.41870117 C6.26584961 29.40194336 4.99483398 29.38518555 3.68530273 29.36791992 C2.40655273 29.35889648 1.12780273 29.34987305 -0.18969727 29.34057617 C-3.35654893 29.31694295 -6.5230315 29.28399621 -9.68969727 29.24291992 C-10.70363283 25.38771256 -10.60290832 22.84121972 -9.54516602 19.01245117 C-9.28026367 18.04500977 -9.01536133 17.07756836 -8.74243164 16.08081055 C-8.4569043 15.08243164 -8.17137695 14.08405273 -7.87719727 13.05541992 C-7.60327148 12.04543945 -7.3293457 11.03545898 -7.04711914 9.99487305 C-4.36932145 0.39461513 -4.36932145 0.39461513 0 0 Z " fill="#17EAD5" transform="translate(79.689697265625,23.757080078125)"/>
<path d="M0 0 C4.10274524 0.06827025 6.24776733 0.24036777 9.18408203 3.20556641 C10.08682861 4.63908447 10.08682861 4.63908447 11.0078125 6.1015625 C11.68457031 7.14957031 12.36132812 8.19757812 13.05859375 9.27734375 C13.74050781 10.38207031 14.42242187 11.48679687 15.125 12.625 C16.50190694 14.78429892 17.87949453 16.94316399 19.2578125 19.1015625 C19.89879883 20.12024414 20.53978516 21.13892578 21.20019531 22.18847656 C23.3535851 25.55234483 25.63219564 28.78457695 28 32 C28.02505615 31.06615479 28.0501123 30.13230957 28.07592773 29.17016602 C28.17086928 25.71674811 28.27011258 22.2635104 28.37231445 18.81030273 C28.41571813 17.31360731 28.45738913 15.81686061 28.49731445 14.32006836 C28.55488616 12.17285688 28.61861716 10.02590479 28.68359375 7.87890625 C28.72025146 6.5854126 28.75690918 5.29191895 28.79467773 3.95922852 C29 1 29 1 30 0 C31.66617115 -0.04063832 33.33388095 -0.042721 35 0 C36.62591155 3.2518231 36.16306852 6.82910038 36.16796875 10.40234375 C36.17296135 11.65260094 36.17296135 11.65260094 36.17805481 12.92811584 C36.18312161 14.69255012 36.18546321 16.456994 36.18530273 18.22143555 C36.18748841 20.92317469 36.20564426 23.62450506 36.22460938 26.32617188 C36.22754348 28.0390611 36.22952816 29.75195227 36.23046875 31.46484375 C36.23765427 32.2742894 36.24483978 33.08373505 36.25224304 33.91770935 C36.23639392 37.80245573 36.20486601 39.69270098 34 43 C31.1171875 43.453125 31.1171875 43.453125 28 43 C25.9453125 41.234375 25.9453125 41.234375 24.125 38.75 C23.44824219 37.83734375 22.77148438 36.9246875 22.07421875 35.984375 C19.37938574 32.10706347 16.72340283 28.21066869 14.15234375 24.25 C11.18844441 19.77456579 8.07828105 15.39754436 5 11 C4.67 21.23 4.34 31.46 4 42 C1.525 42.495 1.525 42.495 -1 43 C-3.11834035 40.88165965 -2.16419113 36.15396626 -2.16796875 33.22265625 C-2.17129715 32.34097275 -2.17462555 31.45928925 -2.17805481 30.55088806 C-2.18312783 28.68212406 -2.18546302 26.81335096 -2.18530273 24.94458008 C-2.18748808 22.07813656 -2.20563655 19.2120784 -2.22460938 16.34570312 C-2.22754339 14.53385549 -2.22952813 12.72200602 -2.23046875 10.91015625 C-2.23765427 10.0486647 -2.24483978 9.18717316 -2.25224304 8.29957581 C-2.2288216 2.2288216 -2.2288216 2.2288216 0 0 Z M29 33 C30 35 30 35 30 35 Z " fill="#272727" transform="translate(212,41)"/>
<path d="M0 0 C5.09340643 4.46518742 8.58177012 9.20188916 9.3359375 16.05078125 C9.43194327 24.06726338 8.89239435 29.69331615 3.421875 35.74609375 C-1.32864314 40.20772903 -5.88014754 41.71112477 -12.375 42.3125 C-19.21524901 41.72282336 -24.18730446 40.35247353 -28.9375 35.1875 C-34.14016289 28.53965297 -34.716988 22.25123894 -34 14 C-32.91962233 7.86003188 -29.91958429 4.2675 -25.11328125 0.41015625 C-17.54967981 -4.63690497 -7.84372956 -4.17778893 0 0 Z M-22 6 C-22.721875 6.5775 -23.44375 7.155 -24.1875 7.75 C-27.5925746 11.97698916 -28.23461796 16.33973132 -27.8125 21.625 C-26.96371668 27.43817882 -24.4008065 31.14929431 -20 35 C-14.74585964 36.75138012 -9.25175425 36.98290651 -4.1875 34.5 C-0.23769718 31.88210743 1.65907444 28.48297597 3 24 C3.94874945 18.39553163 3.14063017 13.67095529 0.3203125 8.73046875 C-2.49719168 5.0377044 -5.70939474 3.34182274 -10.27734375 2.66015625 C-15.01190833 2.46321097 -18.20121322 2.96097058 -22 6 Z " fill="#242424" transform="translate(370,43)"/>
<path d="M0 0 C3.85390817 -0.11693501 7.70735512 -0.1874962 11.5625 -0.25 C12.64853516 -0.28351562 13.73457031 -0.31703125 14.85351562 -0.3515625 C21.48773779 -0.43222174 25.66168102 -0.0714751 31 4 C33.15164703 7.22747055 33.27245079 8.20505639 33.25 11.9375 C33.25773437 13.21947266 33.25773437 13.21947266 33.265625 14.52734375 C32.81480337 18.72396276 31.07297447 21.20638685 28 24 C28.639375 24.763125 29.27875 25.52625 29.9375 26.3125 C32.80051259 30.04309216 33.12182321 32.61961258 33.0625 37.1875 C33.05347656 38.08855469 33.04445313 38.98960938 33.03515625 39.91796875 C33.02355469 40.60503906 33.01195312 41.29210937 33 42 C31.34385343 42.38218767 29.67542976 42.71395102 28 43 C25.85408135 40.85408135 26.05366875 36.56874718 25.59765625 33.6640625 C25.12087222 30.7922703 25.12087222 30.7922703 23 28 C19.53287889 26.84429296 16.4585044 26.67164707 12.8125 26.4375 C11.54019531 26.35371094 10.26789063 26.26992187 8.95703125 26.18359375 C7.49330078 26.09271484 7.49330078 26.09271484 6 26 C6.01160156 27.05960938 6.02320313 28.11921875 6.03515625 29.2109375 C6.04453476 30.59895658 6.05363489 31.98697755 6.0625 33.375 C6.07087891 34.07367188 6.07925781 34.77234375 6.08789062 35.4921875 C6.11328125 40.7734375 6.11328125 40.7734375 5 43 C3.33388095 43.042721 1.66617115 43.04063832 0 43 C-1.89173694 41.10826306 -1.12895949 38.35596235 -1.13894653 35.83937073 C-1.1369223 34.97585495 -1.13489807 34.11233917 -1.1328125 33.22265625 C-1.13376923 32.34097275 -1.13472595 31.45928925 -1.13571167 30.55088806 C-1.13639359 28.68211801 -1.13453851 26.81334561 -1.13037109 24.94458008 C-1.12502932 22.07823372 -1.13031242 19.21204453 -1.13671875 16.34570312 C-1.13605785 14.53385382 -1.13477643 12.72200461 -1.1328125 10.91015625 C-1.13584885 9.61791893 -1.13584885 9.61791893 -1.13894653 8.29957581 C-1.11495439 2.22990878 -1.11495439 2.22990878 0 0 Z M5 5 C5 10.28 5 15.56 5 21 C15.47878278 21.62057356 15.47878278 21.62057356 25 18 C27.280721 16.12575284 27.280721 16.12575284 27.375 13.125 C27.25896049 9.93840048 27.25896049 9.93840048 25.25 7.6875 C19.53752144 3.40314108 11.76819349 4.93733154 5 5 Z " fill="#1E1E1E" transform="translate(296,41)"/>
<path d="M0 0 C5.09340643 4.46518742 8.58177012 9.20188916 9.3359375 16.05078125 C9.43194327 24.06726338 8.89239435 29.69331615 3.421875 35.74609375 C-1.32864314 40.20772903 -5.88014754 41.71112477 -12.375 42.3125 C-19.21524901 41.72282336 -24.18730446 40.35247353 -28.9375 35.1875 C-34.14016289 28.53965297 -34.716988 22.25123894 -34 14 C-32.91962233 7.86003188 -29.91958429 4.2675 -25.11328125 0.41015625 C-17.54967981 -4.63690497 -7.84372956 -4.17778893 0 0 Z M-25.875 9.5 C-28.48316739 15.29592752 -28.82105 20.49363684 -26.8125 26.625 C-24.37381802 31.16599403 -21.96964213 34.34345262 -17 36 C-12.11843577 36.51252223 -8.14914011 36.51072894 -3.625 34.5 C0.86448656 30.22429851 3.17651273 25.74330438 3.5 19.5 C3.17651273 13.25669562 0.86448656 8.77570149 -3.625 4.5 C-11.78644967 0.87268904 -20.35258295 2.13677727 -25.875 9.5 Z " fill="#212121" transform="translate(192,43)"/>
<path d="M0 0 C0.66 0.66 1.32 1.32 2 2 C1.625 4.125 1.625 4.125 1 6 C-2.12290635 5.51421457 -4.99580359 5.0013988 -8 4 C-12.83012354 3.48489941 -17.4905784 3.34765202 -21.9375 5.5 C-26.79085545 9.46192282 -27.73436493 13.47646686 -28.375 19.5625 C-27.72330301 25.53638905 -25.70444602 30.17763761 -21 34 C-14.85865934 36.04711355 -8.88249874 35.52107089 -3 33 C-0.1875 33.375 -0.1875 33.375 2 34 C1.875 35.8125 1.875 35.8125 1 38 C-5.55875028 41.93525017 -11.75466667 42.90126002 -19.2734375 41.609375 C-25.64625109 39.91285807 -29.39145606 36.45779776 -33 31 C-36.07673605 24.77449728 -36.14733346 17.24582084 -34.34765625 10.5859375 C-31.53491101 4.33270988 -26.87748831 0.15099532 -20.5625 -2.375 C-13.00275414 -3.7012712 -7.00489403 -3.16818858 0 0 Z " fill="#242424" transform="translate(151,43)"/>
<path d="M0 0 C1.43352212 0.00015908 2.86704998 0.00585132 4.30053711 0.01586914 C5.43041298 0.01799156 5.43041298 0.01799156 6.58311462 0.02015686 C8.99807646 0.02577163 11.41294687 0.03832656 13.82788086 0.05102539 C15.46134307 0.05603849 17.09480672 0.06060173 18.72827148 0.06469727 C22.74067671 0.07574585 26.75301326 0.09302033 30.76538086 0.11352539 C31.26038086 2.58852539 31.26038086 2.58852539 31.76538086 5.11352539 C26.81538086 5.11352539 21.86538086 5.11352539 16.76538086 5.11352539 C16.76538086 17.32352539 16.76538086 29.53352539 16.76538086 42.11352539 C14.29038086 42.60852539 14.29038086 42.60852539 11.76538086 43.11352539 C10.76538086 42.11352539 10.76538086 42.11352539 10.65185547 38.60351562 C10.6520146 37.04304117 10.65770944 35.48256146 10.66772461 33.92211914 C10.66913956 33.10228043 10.6705545 32.28244171 10.67201233 31.4377594 C10.67762797 28.80881157 10.69018307 26.17994766 10.70288086 23.55102539 C10.70789385 21.77303183 10.7124571 19.99503693 10.71655273 18.21704102 C10.72760247 13.84916994 10.74487755 9.48136191 10.76538086 5.11352539 C6.14538086 5.11352539 1.52538086 5.11352539 -3.23461914 5.11352539 C-3.56461914 3.79352539 -3.89461914 2.47352539 -4.23461914 1.11352539 C-3.23461914 0.11352539 -3.23461914 0.11352539 0 0 Z " fill="#131313" transform="translate(257.234619140625,40.886474609375)"/>
<path d="M0 0 C4.62 0 9.24 0 14 0 C14 8.91 14 17.82 14 27 C9.38 27 4.76 27 0 27 C0 18.09 0 9.18 0 0 Z " fill="#34C7AE" transform="translate(37,19)"/>
<path d="M0 0 C1.65 0.33 3.3 0.66 5 1 C5 13.21 5 25.42 5 38 C12.26 38 19.52 38 27 38 C27.33 39.32 27.66 40.64 28 42 C26.23011735 43.76988265 23.68034582 43.13029068 21.28515625 43.1328125 C20.12435547 43.13410156 18.96355469 43.13539062 17.76757812 43.13671875 C16.54490234 43.13285156 15.32222656 43.12898438 14.0625 43.125 C12.84369141 43.12886719 11.62488281 43.13273437 10.36914062 43.13671875 C8.62600586 43.13478516 8.62600586 43.13478516 6.84765625 43.1328125 C5.77523682 43.13168457 4.70281738 43.13055664 3.59790039 43.12939453 C1 43 1 43 -1 42 C-1.02464638 36.17928378 -1.0428343 30.35859766 -1.05493164 24.5378418 C-1.05997267 22.55606559 -1.06680538 20.57429311 -1.07543945 18.5925293 C-1.08751515 15.75047891 -1.09323045 12.90847753 -1.09765625 10.06640625 C-1.10281754 9.17474258 -1.10797882 8.28307892 -1.11329651 7.36439514 C-1.11349177 5.24259399 -1.0621003 3.1208922 -1 1 C-0.67 0.67 -0.34 0.34 0 0 Z " fill="#151515" transform="translate(389,41)"/>
<path d="M0 0 C4.29 0 8.58 0 13 0 C13 8.91 13 17.82 13 27 C8.71 27 4.42 27 0 27 C0 18.09 0 9.18 0 0 Z " fill="#3EBCC3" transform="translate(58,67)"/>
<path d="M0 0 C1.65 0.33 3.3 0.66 5 1 C5 4.96 5 8.92 5 13 C8.63 13 12.26 13 16 13 C16.33 14.32 16.66 15.64 17 17 C16 18 16 18 13.49609375 18.09765625 C10.6640625 18.06510417 7.83203125 18.03255208 5 18 C5 21.63 5 25.26 5 29 C3.35 29.33 1.7 29.66 0 30 C-1 29 -1 29 -1.09765625 26.49609375 C-1.04882812 22.24804688 -1.04882812 22.24804688 -1 18 C-4.96 18 -8.92 18 -13 18 C-13 16.35 -13 14.7 -13 13 C-9.04 13 -5.08 13 -1 13 C-1.020625 11.040625 -1.04125 9.08125 -1.0625 7.0625 C-1.08377188 5.04167124 -1.07244053 3.01964199 -1 1 C-0.67 0.67 -0.34 0.34 0 0 Z " fill="#34DDFF" transform="translate(442,46)"/>
<path d="M0 0 C2.69990662 1.79993774 4.5418865 3.083773 6 6 C6.55881444 10.09797257 6.1370529 11.76872323 4 15.375 C0.47775176 18.45696721 0.47775176 18.45696721 -3 18.6875 C-6.2292795 18.41839337 -7.18532256 17.87259074 -10 15.9375 C-12.48980198 12.28060335 -12.55310065 10.34579086 -12 6 C-11.14455592 3.36238076 -10.49752294 2.35537353 -8.25 0.75 C-5.26448836 -0.24517055 -3.13343215 -0.38368557 0 0 Z " fill="#15FAAF" transform="translate(361,54)"/>
<path d="M0 0 C0.88602402 0.00222061 1.77204803 0.00444122 2.68492126 0.00672913 C3.68588333 0.00680466 4.6868454 0.00688019 5.71813965 0.00695801 C6.80666733 0.01211929 7.89519501 0.01728058 9.01670837 0.02259827 C10.67928932 0.02472069 10.67928932 0.02472069 12.37545776 0.02688599 C15.93168281 0.03250418 19.48784596 0.04505977 23.04405212 0.05775452 C25.44834809 0.06276717 27.85264504 0.06733048 30.25694275 0.07142639 C36.16516716 0.08247952 42.07335522 0.09923535 47.98155212 0.12025452 C48.47655212 1.11025452 48.47655212 1.11025452 48.98155212 2.12025452 C33.14155212 2.45025452 17.30155212 2.78025452 0.98155212 3.12025452 C-1.41980916 9.44267302 -1.41980916 9.44267302 -3.44813538 15.82728577 C-3.68387268 16.6526886 -3.91960999 17.47809143 -4.16249084 18.32850647 C-4.40370667 19.18790833 -4.64492249 20.04731018 -4.89344788 20.93275452 C-5.14884338 21.8340509 -5.40423889 22.73534729 -5.66737366 23.66395569 C-8.23609003 32.78488698 -10.64883622 41.9458731 -13.01844788 51.12025452 C-14.00844788 50.79025452 -14.99844788 50.46025452 -16.01844788 50.12025452 C-15.29207876 43.45868511 -13.53350054 37.13585034 -11.76844788 30.68275452 C-11.45633362 29.53363586 -11.14421936 28.38451721 -10.82264709 27.20057678 C-3.4298971 0.20434544 -3.4298971 0.20434544 0 0 Z " fill="#989B9C" transform="translate(44.01844787597656,56.87974548339844)"/>
<path d="M0 0 C0.88602402 0.00222061 1.77204803 0.00444122 2.68492126 0.00672913 C3.68588333 0.00680466 4.6868454 0.00688019 5.71813965 0.00695801 C6.80666733 0.01211929 7.89519501 0.01728058 9.01670837 0.02259827 C10.67928932 0.02472069 10.67928932 0.02472069 12.37545776 0.02688599 C15.93168281 0.03250418 19.48784596 0.04505977 23.04405212 0.05775452 C25.44834809 0.06276717 27.85264504 0.06733048 30.25694275 0.07142639 C36.16516716 0.08247952 42.07335522 0.09923535 47.98155212 0.12025452 C48.47655212 1.11025452 48.47655212 1.11025452 48.98155212 2.12025452 C33.14155212 2.45025452 17.30155212 2.78025452 0.98155212 3.12025452 C-1.56029942 8.99704702 -1.56029942 8.99704702 -3.44813538 14.94837952 C-3.80174133 16.25911438 -3.80174133 16.25911438 -4.16249084 17.59632874 C-4.40370667 18.51172424 -4.64492249 19.42711975 -4.89344788 20.37025452 C-5.14884338 21.32303284 -5.40423889 22.27581116 -5.66737366 23.25746155 C-6.45701476 26.21018142 -7.2387135 29.1649045 -8.01844788 32.12025452 C-8.26981506 33.06932678 -8.52118225 34.01839905 -8.78016663 34.99623108 C-10.20270213 40.36837242 -11.6151601 45.74305446 -13.01844788 51.12025452 C-13.67844788 51.12025452 -14.33844788 51.12025452 -15.01844788 51.12025452 C-16.05189943 47.22675533 -15.91758812 44.71850925 -14.79579163 40.86634827 C-14.50720276 39.85572327 -14.21861389 38.84509827 -13.92127991 37.80384827 C-13.44344055 36.19703186 -13.44344055 36.19703186 -12.95594788 34.55775452 C-12.63738831 33.45689514 -12.31882874 32.35603577 -11.99061584 31.22181702 C-11.01138952 27.85114019 -10.01599427 24.4855489 -9.01844788 21.12025452 C-8.42819715 19.10084218 -7.83833136 17.08131727 -7.24891663 15.06166077 C-6.71493329 13.24751303 -6.1798401 11.43369147 -5.64344788 9.62025452 C-5.39328918 8.77261536 -5.14313049 7.9249762 -4.88539124 7.051651 C-2.81554593 0.1677438 -2.81554593 0.1677438 0 0 Z " fill="#989B9A" transform="translate(26.018447875976563,-0.1202545166015625)"/>
<path d="M0 0 C4.29154022 -0.0867562 8.58285668 -0.1403089 12.875 -0.1875 C14.70998047 -0.22520508 14.70998047 -0.22520508 16.58203125 -0.26367188 C18.33193359 -0.27817383 18.33193359 -0.27817383 20.1171875 -0.29296875 C21.73536377 -0.31653442 21.73536377 -0.31653442 23.38623047 -0.34057617 C24.68004639 -0.17199097 24.68004639 -0.17199097 26 0 C26.66 0.99 27.32 1.98 28 3 C19.42 3.33 10.84 3.66 2 4 C-0.45181463 9.52427585 -0.45181463 9.52427585 -2.09765625 15.078125 C-2.25943359 15.76390625 -2.42121094 16.4496875 -2.58789062 17.15625 C-2.74451172 17.8471875 -2.90113281 18.538125 -3.0625 19.25 C-4.73183391 26.59775087 -4.73183391 26.59775087 -7 30 C-7.66 29.34 -8.32 28.68 -9 28 C-8.828125 26.1875 -8.828125 26.1875 -8.25 24 C-8.05019531 23.20078125 -7.85039063 22.4015625 -7.64453125 21.578125 C-7.43183594 20.72734375 -7.21914062 19.8765625 -7 19 C-6.63543104 17.25213745 -6.28110144 15.50210504 -5.9375 13.75 C-5.78152344 12.96109375 -5.62554687 12.1721875 -5.46484375 11.359375 C-5.31144531 10.58078125 -5.15804687 9.8021875 -5 9 C-4.66711435 7.33324386 -4.33390156 5.66655292 -4 4 C-3.34 4 -2.68 4 -2 4 C-1.34 2.68 -0.68 1.36 0 0 Z " fill="#97A19F" transform="translate(75,21)"/>
<path d="M0 0 C9.24 0 18.48 0 28 0 C28.495 0.99 28.495 0.99 29 2 C20.42 2.33 11.84 2.66 3 3 C0.75000051 8.99999865 -1.02049985 14.59981928 -2.4609375 20.79492188 C-3.33911315 24.31842173 -4.05505706 26.74946122 -7 29 C-7.96012461 25.2960763 -7.98655947 22.9239623 -6.85546875 19.27734375 C-6.59056641 18.40916016 -6.32566406 17.54097656 -6.05273438 16.64648438 C-5.76720703 15.75251953 -5.48167969 14.85855469 -5.1875 13.9375 C-4.91357422 13.03966797 -4.63964844 12.14183594 -4.35742188 11.21679688 C-3.12753697 7.2499019 -1.86767762 3.73535523 0 0 Z " fill="#989B9B" transform="translate(8,57)"/>
<path d="M0 0 C0.99 0.66 1.98 1.32 3 2 C2.67 3.65 2.34 5.3 2 7 C-1.52994613 8.17664871 -4.29455413 8.19850603 -8 8 C-8.99 7.34 -9.98 6.68 -11 6 C-10.625 3.5625 -10.625 3.5625 -10 1 C-6.87293041 -0.5635348 -3.42017557 -0.39958487 0 0 Z " fill="#30CBA7" transform="translate(48,10)"/>
<path d="M0 0 C1.62490954 -0.02698189 3.24994633 -0.04638757 4.875 -0.0625 C5.77992187 -0.07410156 6.68484375 -0.08570312 7.6171875 -0.09765625 C10 0 10 0 12 1 C11.625 3.4375 11.625 3.4375 11 6 C8.77109005 7.11445498 7.46944894 7.16480286 5 7.1875 C3.948125 7.20876953 3.948125 7.20876953 2.875 7.23046875 C1 7 1 7 -1 5 C-0.625 2.375 -0.625 2.375 0 0 Z " fill="#40B9CB" transform="translate(59,96)"/>
</svg>
