<?xml version="1.0" encoding="UTF-8"?>
<svg version="1.1" xmlns="http://www.w3.org/2000/svg" width="774" height="215">
<path d="M0 0 C1.39273888 -0.038619 1.39273888 -0.038619 2.81361389 -0.07801819 C7.07449291 -0.16269804 11.33520883 -0.22809711 15.59667969 -0.27441406 C17.83622628 -0.30597977 20.07560763 -0.35365574 22.31445312 -0.41796875 C43.31951802 -1.01270076 43.31951802 -1.01270076 49.87670898 4.15063477 C51.81772511 6.14242872 53.17404245 7.76483295 54.41186523 10.24047852 C54.66581055 9.68618164 54.91975586 9.13188477 55.18139648 8.56079102 C55.69766602 7.47411133 55.69766602 7.47411133 56.22436523 6.36547852 C56.56081055 5.64618164 56.89725586 4.92688477 57.24389648 4.18579102 C58.41186523 2.24047852 58.41186523 2.24047852 61.41186523 0.24047852 C64.34537125 0.04027019 67.18419038 -0.04281687 70.1184082 -0.03417969 C71.00814331 -0.03929062 71.89787842 -0.04440155 72.8145752 -0.04966736 C75.7611358 -0.06358792 78.70746312 -0.06260457 81.65405273 -0.06030273 C83.70045051 -0.06418865 85.74684749 -0.0685231 87.79324341 -0.07328796 C92.08557752 -0.08075572 96.37782939 -0.08045511 100.67016602 -0.07519531 C106.17047941 -0.06940358 111.67045576 -0.08632192 117.17071342 -0.10953999 C121.39834563 -0.12427406 125.62589663 -0.1251494 129.85354996 -0.12203026 C131.88133537 -0.12254375 133.90912529 -0.12778676 135.93688583 -0.13784218 C138.77365737 -0.15018118 141.60977215 -0.14342976 144.4465332 -0.13183594 C145.28411163 -0.13947968 146.12169006 -0.14712341 146.98464966 -0.15499878 C151.57760013 -0.11351702 154.71540713 0.18803194 158.41186523 3.24047852 C158.41186523 3.90047852 158.41186523 4.56047852 158.41186523 5.24047852 C159.03061523 5.32297852 159.64936523 5.40547852 160.28686523 5.49047852 C162.41186523 6.24047852 162.41186523 6.24047852 163.58862305 7.99755859 C164.58620782 10.71547417 164.35878501 12.07523106 163.70874023 14.87719727 C163.50700195 15.75811035 163.30526367 16.63902344 163.09741211 17.54663086 C162.03015201 21.74041573 160.88345075 25.90158709 159.66186523 30.05297852 C159.12667257 31.90062422 158.59151739 33.74828078 158.05639648 35.59594727 C157.7839209 36.53100098 157.51144531 37.46605469 157.23071289 38.42944336 C155.92692049 42.90525304 154.63519568 47.38447834 153.34936523 51.86547852 C153.10178467 52.72729736 152.8542041 53.58911621 152.59912109 54.47705078 C150.6767644 61.21194111 148.87031283 67.97366854 147.14794922 74.76245117 C145.98053401 79.30697732 144.60693283 83.73354279 143.09228516 88.17407227 C141.93725291 91.68185587 141.11456323 95.26849046 140.25561523 98.85766602 C139.32598204 101.48301903 138.55474873 102.50181755 136.41186523 104.24047852 C134.5501833 104.62917519 134.5501833 104.62917519 132.42243958 104.64834595 C131.61370392 104.66258606 130.80496826 104.67682617 129.97172546 104.6914978 C128.64622429 104.69181503 128.64622429 104.69181503 127.29394531 104.69213867 C125.89341919 104.70966187 125.89341919 104.70966187 124.46459961 104.72753906 C121.37009481 104.76120068 118.27606841 104.77187119 115.18139648 104.77954102 C113.03008351 104.79171912 110.87877225 104.80420505 108.72746277 104.81698608 C104.21231278 104.83948594 99.69733182 104.84901842 95.18212891 104.85131836 C89.40587733 104.85659329 83.63103976 104.90786467 77.85516834 104.97083473 C73.40863055 105.01177623 68.96243162 105.02096115 64.51572227 105.02143478 C62.38709229 105.02681135 60.25845849 105.04364282 58.13001442 105.0722847 C55.14456771 105.10909727 52.16230628 105.10126742 49.17675781 105.08276367 C48.30321152 105.10321747 47.42966522 105.12367126 46.52964783 105.14474487 C40.44210414 105.04147903 37.30131627 103.2106963 32.83075142 99.12969017 C31.41186523 97.24047852 31.41186523 97.24047852 31.28710938 93.27172852 C31.61919539 91.91675733 31.99458423 90.57168271 32.41186523 89.24047852 C32.7114917 88.01329102 33.01111816 86.78610352 33.31982422 85.52172852 C33.85845093 83.65000977 33.85845093 83.65000977 34.40795898 81.74047852 C34.60156509 81.06049805 34.7951712 80.38051758 34.99464417 79.67993164 C35.60735419 77.53181737 36.2279961 75.38610222 36.84936523 73.24047852 C37.46553398 71.09441967 38.08000568 68.94788605 38.69337463 66.80102539 C39.25078922 64.85290911 39.81251889 62.906029 40.37451172 60.95922852 C41.46015878 57.0673537 42.44857325 53.16417755 43.41186523 49.24047852 C43.24170898 49.92754883 43.07155273 50.61461914 42.89624023 51.32250977 C42.53272461 52.6740918 42.53272461 52.6740918 42.16186523 54.05297852 C41.92983398 54.94629883 41.69780273 55.83961914 41.45874023 56.76000977 C40.20308345 59.7351667 39.15103333 60.57667859 36.41186523 62.24047852 C34.01487732 62.61470032 34.01487732 62.61470032 31.32373047 62.61279297 C29.80712074 62.62213615 29.80712074 62.62213615 28.25987244 62.63166809 C27.174366 62.62245834 26.08885956 62.6132486 24.97045898 62.60375977 C23.8512355 62.60425827 22.73201202 62.60475677 21.57887268 62.60527039 C19.21434757 62.60293102 16.84981991 62.59321063 14.48535156 62.57666016 C10.85971908 62.55304595 7.23482081 62.55610323 3.60913086 62.56274414 C1.3129025 62.55716812 -0.98332275 62.55005873 -3.27954102 62.54125977 C-4.36707169 62.54217117 -5.45460236 62.54308258 -6.5750885 62.54402161 C-7.58300949 62.53448959 -8.59093048 62.52495758 -9.62939453 62.51513672 C-10.96031883 62.50822563 -10.96031883 62.50822563 -12.31813049 62.50117493 C-14.58813477 62.24047852 -14.58813477 62.24047852 -17.58813477 60.24047852 C-17.58813477 59.58047852 -17.58813477 58.92047852 -17.58813477 58.24047852 C-19.23813477 57.58047852 -20.88813477 56.92047852 -22.58813477 56.24047852 C-24.3266433 49.40234494 -22.43009003 44.08629041 -20.33813477 37.49047852 C-19.70700678 35.43346879 -19.0767934 33.37617822 -18.44750977 31.31860352 C-18.13555664 30.31055664 -17.82360352 29.30250977 -17.50219727 28.26391602 C-16.09706909 23.61618436 -14.84056703 18.93117461 -13.58813477 14.24047852 C-13.08906978 12.40689043 -12.58919021 10.57352367 -12.08813477 8.74047852 C-11.87157227 7.94641602 -11.65500977 7.15235352 -11.43188477 6.33422852 C-10.48591202 3.98681466 -9.55247233 2.81965185 -7.58813477 1.24047852 C-4.78209919 0.30513332 -2.91459702 0.07826534 0 0 Z M52.41186523 14.24047852 C51.56960523 16.8003473 50.73787972 19.36286867 49.91186523 21.92797852 C49.67338867 22.64920898 49.43491211 23.37043945 49.18920898 24.11352539 C47.96787529 27.93455508 47.09110946 31.17489907 47.41186523 35.24047852 C49.13275293 32.65914697 49.87699154 31.11253645 50.70092773 28.22875977 C50.92006836 27.47143555 51.13920898 26.71411133 51.36499023 25.93383789 C51.58670898 25.1481543 51.80842773 24.3624707 52.03686523 23.55297852 C52.26631836 22.75569336 52.49577148 21.9584082 52.73217773 21.13696289 C53.2967276 19.17279982 53.85491511 17.20681005 54.41186523 15.24047852 C53.75186523 14.91047852 53.09186523 14.58047852 52.41186523 14.24047852 Z " fill="#1DE0F0" transform="translate(23.588134765625,110.759521484375)"/>
<path d="M0 0 C3.12864156 -0.30192678 6.0598836 -0.40917249 9.19140625 -0.38818359 C10.62080032 -0.39606903 10.62080032 -0.39606903 12.07907104 -0.40411377 C15.240379 -0.41735668 18.40118661 -0.40856044 21.5625 -0.3984375 C23.75203549 -0.400457 25.94157033 -0.40336739 28.13110352 -0.40713501 C32.72451163 -0.41156419 37.31774498 -0.40510816 41.91113281 -0.39111328 C47.80973724 -0.37402119 53.70793221 -0.38385918 59.60652161 -0.40183067 C64.12914129 -0.41265244 68.65166332 -0.40922955 73.17428589 -0.4014473 C75.34968107 -0.39944084 77.52508502 -0.40192009 79.70046997 -0.40888596 C82.7367514 -0.41647397 85.77236247 -0.40493336 88.80859375 -0.38818359 C90.16765335 -0.39729263 90.16765335 -0.39729263 91.5541687 -0.40658569 C94.05249023 -0.38095093 94.05249023 -0.38095093 98 0 C98.99 1.485 98.99 1.485 100 3 C100.680625 3.2475 101.36125 3.495 102.0625 3.75 C104 5 104 5 104.76953125 7.953125 C105.33470344 12.89445247 103.96130352 17.27549372 102.625 22 C102.35679443 22.98693848 102.08858887 23.97387695 101.81225586 24.99072266 C99.11904164 34.80468352 96.2652547 44.57573554 93.40014648 54.34082031 C90.63261087 63.77470435 87.95325002 73.23039008 85.38305664 82.72021484 C81.73444169 95.98353161 81.73444169 95.98353161 79 102 C75.59478859 103.7026057 71.70607881 103.12864821 67.96044922 103.11352539 C67.02381439 103.11367142 66.08717957 103.11381744 65.12216187 103.1139679 C62.01631378 103.11326944 58.91052515 103.10548015 55.8046875 103.09765625 C53.65520256 103.09579183 51.5057172 103.09436804 49.35623169 103.09336853 C43.69104851 103.08954522 38.02589085 103.07971651 32.36071777 103.06866455 C26.58292994 103.05844644 20.805138 103.05387005 15.02734375 103.04882812 C3.6848846 103.03809409 -7.65755558 103.02101989 -19 103 C-19.28875 102.35160156 -19.5775 101.70320313 -19.875 101.03515625 C-20.431875 100.02775391 -20.431875 100.02775391 -21 99 C-22.32303717 98.6278958 -23.65737935 98.29369827 -25 98 C-27.28203409 94.57694886 -27.07348215 93.2118053 -26.45849609 89.27050781 C-25.64361279 85.23514322 -24.49351543 81.31620012 -23.3125 77.375 C-22.76314668 75.49773964 -22.21500591 73.6201241 -21.66796875 71.7421875 C-21.38872559 70.78666992 -21.10948242 69.83115234 -20.82177734 68.84667969 C-19.5412304 64.4107981 -18.33097483 59.95663079 -17.125 55.5 C-16.63030658 53.6796608 -16.13551146 51.85934923 -15.640625 50.0390625 C-15.38087891 49.08290039 -15.12113281 48.12673828 -14.85351562 47.14160156 C-14.57185547 46.10487305 -14.29019531 45.06814453 -14 44 C-13.67708984 42.81116211 -13.35417969 41.62232422 -13.02148438 40.39746094 C-11.97614053 36.55567466 -10.92594098 32.71525852 -9.875 28.875 C-9.55031738 27.67810547 -9.22563477 26.48121094 -8.89111328 25.24804688 C-3.34195885 5.01293827 -3.34195885 5.01293827 0 0 Z " fill="#0EF3BF" transform="translate(47,0)"/>
<path d="M0 0 C1.39273888 -0.038619 1.39273888 -0.038619 2.81361389 -0.07801819 C7.07449291 -0.16269804 11.33520883 -0.22809711 15.59667969 -0.27441406 C17.83622628 -0.30597977 20.07560763 -0.35365574 22.31445312 -0.41796875 C43.31951802 -1.01270076 43.31951802 -1.01270076 49.87670898 4.15063477 C51.81772511 6.14242872 53.17404245 7.76483295 54.41186523 10.24047852 C54.66581055 9.68618164 54.91975586 9.13188477 55.18139648 8.56079102 C55.69766602 7.47411133 55.69766602 7.47411133 56.22436523 6.36547852 C56.56081055 5.64618164 56.89725586 4.92688477 57.24389648 4.18579102 C58.41186523 2.24047852 58.41186523 2.24047852 61.41186523 0.24047852 C64.34537125 0.04027019 67.18419038 -0.04281687 70.1184082 -0.03417969 C71.00814331 -0.03929062 71.89787842 -0.04440155 72.8145752 -0.04966736 C75.7611358 -0.06358792 78.70746312 -0.06260457 81.65405273 -0.06030273 C83.70045051 -0.06418865 85.74684749 -0.0685231 87.79324341 -0.07328796 C92.08557752 -0.08075572 96.37782939 -0.08045511 100.67016602 -0.07519531 C106.17047941 -0.06940358 111.67045576 -0.08632192 117.17071342 -0.10953999 C121.39834563 -0.12427406 125.62589663 -0.1251494 129.85354996 -0.12203026 C131.88133537 -0.12254375 133.90912529 -0.12778676 135.93688583 -0.13784218 C138.77365737 -0.15018118 141.60977215 -0.14342976 144.4465332 -0.13183594 C145.28411163 -0.13947968 146.12169006 -0.14712341 146.98464966 -0.15499878 C151.57760013 -0.11351702 154.71540713 0.18803194 158.41186523 3.24047852 C158.41186523 3.90047852 158.41186523 4.56047852 158.41186523 5.24047852 C156.69298347 5.24927788 156.69298347 5.24927788 154.93937683 5.258255 C144.15323805 5.31540628 133.36730235 5.38812788 122.58137035 5.47619343 C117.03586968 5.52096849 111.49044369 5.56020882 105.94482422 5.58691406 C100.59547567 5.6128759 95.24641343 5.65322756 89.89724159 5.70366478 C87.85389065 5.72038178 85.81049014 5.73186585 83.76708031 5.73809242 C80.91033101 5.74768105 78.05432227 5.77567705 75.19775391 5.80810547 C74.34827179 5.80667038 73.49878967 5.80523529 72.62356567 5.80375671 C68.36791677 5.73533479 68.36791677 5.73533479 64.72864246 7.6242857 C62.98187993 9.76823609 62.43050516 11.70424407 61.66186523 14.36547852 C61.32155273 15.53079102 60.98124023 16.69610352 60.63061523 17.89672852 C60.22258201 19.34414367 59.81651879 20.79211487 59.41186523 22.24047852 C59.04834961 23.53791992 59.04834961 23.53791992 58.67749023 24.86157227 C57.53646563 28.93905725 56.39736748 33.01705508 55.26489258 37.09692383 C53.0275474 45.13054295 50.67907174 53.12675295 48.28686523 61.11547852 C45.29015163 71.13461998 42.50732403 81.18573769 39.91674805 91.31665039 C39.13217237 94.30623277 38.27428826 97.27250018 37.41186523 100.24047852 C34.54461837 99.66702914 33.55041373 99.37902701 31.41186523 97.24047852 C31.7807588 91.85067356 32.91199334 86.93893396 34.40795898 81.74047852 C34.60156509 81.06049805 34.7951712 80.38051758 34.99464417 79.67993164 C35.60735419 77.53181737 36.2279961 75.38610222 36.84936523 73.24047852 C37.46553398 71.09441967 38.08000568 68.94788605 38.69337463 66.80102539 C39.25078922 64.85290911 39.81251889 62.906029 40.37451172 60.95922852 C41.46015878 57.0673537 42.44857325 53.16417755 43.41186523 49.24047852 C43.24170898 49.92754883 43.07155273 50.61461914 42.89624023 51.32250977 C42.53272461 52.6740918 42.53272461 52.6740918 42.16186523 54.05297852 C41.92983398 54.94629883 41.69780273 55.83961914 41.45874023 56.76000977 C40.20308345 59.7351667 39.15103333 60.57667859 36.41186523 62.24047852 C34.01487732 62.61470032 34.01487732 62.61470032 31.32373047 62.61279297 C29.80712074 62.62213615 29.80712074 62.62213615 28.25987244 62.63166809 C27.174366 62.62245834 26.08885956 62.6132486 24.97045898 62.60375977 C23.8512355 62.60425827 22.73201202 62.60475677 21.57887268 62.60527039 C19.21434757 62.60293102 16.84981991 62.59321063 14.48535156 62.57666016 C10.85971908 62.55304595 7.23482081 62.55610323 3.60913086 62.56274414 C1.3129025 62.55716812 -0.98332275 62.55005873 -3.27954102 62.54125977 C-4.36707169 62.54217117 -5.45460236 62.54308258 -6.5750885 62.54402161 C-7.58300949 62.53448959 -8.59093048 62.52495758 -9.62939453 62.51513672 C-10.96031883 62.50822563 -10.96031883 62.50822563 -12.31813049 62.50117493 C-14.58813477 62.24047852 -14.58813477 62.24047852 -17.58813477 60.24047852 C-17.58813477 59.58047852 -17.58813477 58.92047852 -17.58813477 58.24047852 C-19.23813477 57.58047852 -20.88813477 56.92047852 -22.58813477 56.24047852 C-24.3266433 49.40234494 -22.43009003 44.08629041 -20.33813477 37.49047852 C-19.70700678 35.43346879 -19.0767934 33.37617822 -18.44750977 31.31860352 C-18.13555664 30.31055664 -17.82360352 29.30250977 -17.50219727 28.26391602 C-16.09706909 23.61618436 -14.84056703 18.93117461 -13.58813477 14.24047852 C-13.08906978 12.40689043 -12.58919021 10.57352367 -12.08813477 8.74047852 C-11.87157227 7.94641602 -11.65500977 7.15235352 -11.43188477 6.33422852 C-10.48591202 3.98681466 -9.55247233 2.81965185 -7.58813477 1.24047852 C-4.78209919 0.30513332 -2.91459702 0.07826534 0 0 Z M52.41186523 14.24047852 C51.56960523 16.8003473 50.73787972 19.36286867 49.91186523 21.92797852 C49.67338867 22.64920898 49.43491211 23.37043945 49.18920898 24.11352539 C47.96787529 27.93455508 47.09110946 31.17489907 47.41186523 35.24047852 C49.13275293 32.65914697 49.87699154 31.11253645 50.70092773 28.22875977 C50.92006836 27.47143555 51.13920898 26.71411133 51.36499023 25.93383789 C51.58670898 25.1481543 51.80842773 24.3624707 52.03686523 23.55297852 C52.26631836 22.75569336 52.49577148 21.9584082 52.73217773 21.13696289 C53.2967276 19.17279982 53.85491511 17.20681005 54.41186523 15.24047852 C53.75186523 14.91047852 53.09186523 14.58047852 52.41186523 14.24047852 Z " fill="#1BE8DC" transform="translate(23.588134765625,110.759521484375)"/>
<path d="M0 0 C0.7734375 0.00128906 1.546875 0.00257812 2.34375 0.00390625 C4.99199194 0.53643316 5.86486037 1.31879773 7.5 3.4375 C8.41035504 6.16856511 8.62215713 7.73643239 8.61352539 10.54174805 C8.61340454 11.37379761 8.61328369 12.20584717 8.61315918 13.06311035 C8.60548523 14.36798401 8.60548523 14.36798401 8.59765625 15.69921875 C8.59664917 16.50218384 8.59564209 17.30514893 8.59460449 18.13244629 C8.58937517 21.12997873 8.57541389 24.12749081 8.5625 27.125 C8.541875 33.828125 8.52125 40.53125 8.5 47.4375 C27.31 47.4375 46.12 47.4375 65.5 47.4375 C65.34182134 33.46599784 65.34182134 33.46599784 65.13964844 19.49511719 C65.12796428 17.74154635 65.11777181 15.98796466 65.109375 14.234375 C65.08891113 13.3263916 65.06844727 12.4184082 65.04736328 11.48291016 C65.0438029 5.05641522 65.0438029 5.05641522 67.39941406 1.8605957 C69.65093977 0.33524199 70.80332177 -0.13026695 73.5 -0.125 C74.49 -0.15787109 74.49 -0.15787109 75.5 -0.19140625 C78.75815229 0.83312992 79.70940739 2.56163935 81.5 5.4375 C82.0783677 8.63617929 82.02627415 11.78637274 81.98583984 15.02954102 C81.98963654 15.98944946 81.99343323 16.94935791 81.99734497 17.93835449 C82.00474507 21.10637242 81.98337654 24.27347005 81.9609375 27.44140625 C81.95855284 29.64428093 81.9576478 31.84715766 81.9581604 34.05003357 C81.9550334 38.66426342 81.93847431 43.27818234 81.91162109 47.89233398 C81.87762169 53.80965566 81.86999316 59.72663601 81.87151146 65.64404392 C81.87096789 70.19161747 81.86000315 74.73911627 81.84550858 79.28666496 C81.83914066 81.46877413 81.83520169 83.65089177 81.83372116 85.83300972 C81.82938929 88.88043809 81.81189102 91.92750311 81.79052734 94.97485352 C81.79143372 95.8783403 81.79234009 96.78182709 81.79327393 97.71269226 C81.78474396 98.54396637 81.77621399 99.37524048 81.76742554 100.23170471 C81.76407385 100.95158349 81.76072216 101.67146227 81.75726891 102.41315556 C81.45430624 104.79704561 80.75680628 106.3966944 79.5 108.4375 C76.37057535 110.00221233 72.88917777 110.13451958 69.5 109.4375 C67.39501953 108.05053711 67.39501953 108.05053711 65.5 105.4375 C64.9330258 102.02597502 65.03515357 98.65296041 65.109375 95.203125 C65.11340332 94.32253418 65.11743164 93.44194336 65.12158203 92.53466797 C65.14247594 89.25206603 65.19832164 85.96976162 65.25 82.6875 C65.3325 75.345 65.415 68.0025 65.5 60.4375 C46.69 60.4375 27.88 60.4375 8.5 60.4375 C8.61856883 74.36382359 8.61856883 74.36382359 8.77026367 88.28979492 C8.7790288 90.04084728 8.78667268 91.79190577 8.79296875 93.54296875 C8.80831665 94.44583618 8.82366455 95.34870361 8.83947754 96.27893066 C8.84151453 101.18062094 8.67530847 104.43987449 5.5 108.4375 C3.92102167 110.01647833 2.30637428 109.68293509 0.125 109.75 C-0.66648437 109.78738281 -1.45796875 109.82476562 -2.2734375 109.86328125 C-4.5 109.4375 -4.5 109.4375 -6.11489868 108.01477051 C-8.25123241 104.03967507 -7.91740603 100.22061736 -7.88818359 95.77539062 C-7.89344055 94.79612106 -7.89869751 93.8168515 -7.90411377 92.8079071 C-7.9173216 89.56969267 -7.90857271 86.33196947 -7.8984375 83.09375 C-7.900458 80.84460353 -7.90336924 78.5954577 -7.90713501 76.34631348 C-7.91155943 71.63201664 -7.90512336 66.9178903 -7.89111328 62.20361328 C-7.8740215 56.15729451 -7.88386203 50.11137522 -7.90183067 44.06507111 C-7.91266521 39.42056258 -7.90922365 34.77614894 -7.9014473 30.13163757 C-7.89944438 27.9020737 -7.90190774 25.67250124 -7.90888596 23.44294739 C-7.91649482 20.32826884 -7.90490369 17.21423951 -7.88818359 14.09960938 C-7.89425629 13.17585007 -7.90032898 12.25209076 -7.90658569 11.30033875 C-7.84460197 5.0755862 -7.84460197 5.0755862 -6.11050415 1.86462402 C-3.99880963 -0.00662231 -2.79446243 -0.06986156 0 0 Z " fill="#666666" transform="translate(384.5,55.5625)"/>
<path d="M0 0 C1.03240311 -0.01073296 1.03240311 -0.01073296 2.08566284 -0.02168274 C4.35523335 -0.0385591 6.62282558 -0.01917898 8.89233398 0.00219727 C10.47126936 0.00136855 12.05020466 -0.00109095 13.62913513 -0.00511169 C16.93547587 -0.0079688 20.24113883 0.00672357 23.54736328 0.03417969 C27.78696962 0.06829123 32.02536631 0.06223472 36.26503086 0.04351711 C39.52416585 0.0329537 42.78301885 0.04187826 46.04212761 0.05690193 C47.60543925 0.06208724 49.1687803 0.0615977 50.73208809 0.05535698 C52.91578747 0.0499112 55.09774869 0.07025398 57.28125 0.09765625 C59.14512108 0.10695412 59.14512108 0.10695412 61.04664612 0.11643982 C64.07592773 0.63110352 64.07592773 0.63110352 65.97715759 2.47303772 C67.46392173 5.39315241 67.48853583 7.39900678 67.07592773 10.63110352 C65.91227722 12.29341125 65.91227722 12.29341125 64.07592773 13.63110352 C61.47529602 13.99186707 61.47529602 13.99186707 58.31933594 13.97167969 C57.13833817 13.97145309 55.95734039 13.9712265 54.74055481 13.97099304 C53.46548569 13.95550919 52.19041656 13.94002533 50.87670898 13.92407227 C49.57138718 13.91982742 48.26606537 13.91558258 46.92118835 13.91120911 C43.45387495 13.89976441 39.98693961 13.87030106 36.51977539 13.83709717 C32.9806031 13.80638786 29.44136779 13.79253754 25.90209961 13.77758789 C18.95970861 13.74702262 12.01835528 13.68830386 5.07592773 13.63110352 C5.07592773 25.18110352 5.07592773 36.73110352 5.07592773 48.63110352 C8.86706055 48.59629883 12.65819336 48.56149414 16.56420898 48.52563477 C20.22785692 48.50225201 23.8914966 48.48402807 27.55517578 48.46630859 C30.10534371 48.45120347 32.6554856 48.43071818 35.20556641 48.40478516 C38.86684592 48.36847848 42.52778258 48.35139436 46.18920898 48.33813477 C47.33303543 48.32265091 48.47686188 48.30716705 49.65534973 48.29121399 C50.71622299 48.2909874 51.77709625 48.2907608 52.87011719 48.29052734 C53.80499466 48.28386551 54.73987213 48.27720367 55.70307922 48.27033997 C58.07592773 48.63110352 58.07592773 48.63110352 59.87785339 49.93363953 C61.88042604 52.77093838 61.43426065 55.28666298 61.07592773 58.63110352 C59.87785339 60.3285675 59.87785339 60.3285675 58.07592773 61.63110352 C55.70307922 61.99186707 55.70307922 61.99186707 52.87011719 61.97167969 C51.80924393 61.97145309 50.74837067 61.9712265 49.65534973 61.97099304 C47.93961006 61.94776726 47.93961006 61.94776726 46.18920898 61.92407227 C45.01706345 61.91982742 43.84491791 61.91558258 42.63725281 61.91120911 C38.88741239 61.89439424 35.13810617 61.85673584 31.38842773 61.81860352 C28.84872194 61.80356036 26.30900775 61.78987131 23.76928711 61.77758789 C17.53779512 61.74703138 11.30746052 61.68831242 5.07592773 61.63110352 C5.07592773 73.18110352 5.07592773 84.73110352 5.07592773 96.63110352 C9.30018555 96.58469727 13.52444336 96.53829102 17.87670898 96.49047852 C21.24361954 96.46475713 24.61050236 96.44306519 27.97745514 96.42410278 C31.53253369 96.4029738 35.08723124 96.37473732 38.64208984 96.3293457 C42.72033387 96.27759655 46.79817399 96.25816278 50.87670898 96.24047852 C52.15177811 96.21983337 53.42684723 96.19918823 54.74055481 96.17791748 C55.92155258 96.17761536 57.10255035 96.17731323 58.31933594 96.17700195 C59.36080276 96.16811951 60.40226959 96.15923706 61.47529602 96.15008545 C64.07592773 96.63110352 64.07592773 96.63110352 65.91227722 98.46807861 C67.48356355 101.38882794 67.49313375 103.3629897 67.07592773 106.63110352 C65.97715759 108.28845215 65.97715759 108.28845215 64.07592773 109.63110352 C61.04664612 110.0255127 61.04664612 110.0255127 57.28125 110.05102539 C56.59473358 110.05949493 55.90821716 110.06796448 55.20089722 110.07669067 C52.93118777 110.10009252 50.66215496 110.10108214 48.39233398 110.09985352 C46.81436389 110.10695331 45.23639639 110.11465205 43.65843201 110.1229248 C40.35050277 110.13637695 37.04281223 110.13793522 33.73486328 110.13208008 C29.49637592 110.12618369 25.25903394 110.15676803 21.02076817 110.19719696 C17.76163059 110.22305145 14.50276962 110.22595348 11.24354362 110.2223053 C9.6810207 110.22399874 8.1184853 110.23366299 6.5560627 110.25144958 C4.36992983 110.27359707 2.18612515 110.26396303 0 110.24633789 C-1.24337631 110.24839233 -2.48675262 110.25044678 -3.76780701 110.25256348 C-6.92407227 109.63110352 -6.92407227 109.63110352 -9.32447815 107.69116211 C-11.56028195 103.41402045 -11.48449184 99.81632695 -11.44165039 95.05493164 C-11.44865967 94.09662949 -11.45566895 93.13832733 -11.46289062 92.15098572 C-11.48047514 88.98781231 -11.4688459 85.8255358 -11.45532227 82.66235352 C-11.45801704 80.46187163 -11.46189934 78.2613909 -11.46691895 76.06091309 C-11.47281463 71.4508937 -11.4642485 66.84118449 -11.44555664 62.23120117 C-11.42276738 56.32277995 -11.43589004 50.41508553 -11.4598465 44.50669098 C-11.47430237 39.96334357 -11.46969938 35.4201684 -11.45933533 30.8768158 C-11.45666748 28.69831761 -11.45993983 26.51980377 -11.46925354 24.34132385 C-11.47941534 21.29621982 -11.46392245 18.25229185 -11.44165039 15.20727539 C-11.44974731 14.30738388 -11.45784424 13.40749237 -11.46618652 12.48033142 C-11.41274335 8.53510377 -11.17765701 6.11605946 -9.32447815 2.57203674 C-6.09495665 -0.03930729 -4.13130782 0.0031956 0 0 Z " fill="#666666" transform="translate(504.924072265625,55.368896484375)"/>
<path d="M0 0 C1.71212929 0.00349709 1.71212929 0.00349709 3.45884705 0.00706482 C5.87050861 0.01680451 8.2821472 0.0385964 10.69360352 0.0715332 C14.39178192 0.12095261 18.08863056 0.13301408 21.78710938 0.13867188 C24.12892045 0.15275716 26.47071994 0.1689613 28.8125 0.1875 C29.92190445 0.1928627 31.0313089 0.1982254 32.17433167 0.20375061 C33.20227341 0.21973801 34.23021515 0.2357254 35.28930664 0.25219727 C36.64687828 0.26815697 36.64687828 0.26815697 38.03187561 0.28443909 C40.33984375 0.55859375 40.33984375 0.55859375 43.33984375 2.55859375 C43.33984375 3.21859375 43.33984375 3.87859375 43.33984375 4.55859375 C44.98984375 5.21859375 46.63984375 5.87859375 48.33984375 6.55859375 C48.76349666 13.64207035 47.22183265 19.54308209 45.21484375 26.30859375 C44.8993457 27.39664307 44.58384766 28.48469238 44.25878906 29.60571289 C43.60980194 31.83697229 42.95615469 34.06688153 42.29785156 36.29541016 C41.39186827 39.38138687 40.51391076 42.473857 39.64453125 45.5703125 C39.12713307 47.37914415 38.6089484 49.18775109 38.08984375 50.99609375 C37.8563623 51.8355957 37.62288086 52.67509766 37.38232422 53.54003906 C35.68275781 59.32998437 35.68275781 59.32998437 32.33984375 61.55859375 C30.00495911 61.79910278 30.00495911 61.79910278 27.22583008 61.78564453 C26.18497757 61.78549347 25.14412506 61.78534241 24.07173157 61.78518677 C22.9497789 61.7748642 21.82782623 61.76454163 20.671875 61.75390625 C18.94695076 61.74966141 18.94695076 61.74966141 17.18717957 61.74533081 C13.50879579 61.73412208 9.83065413 61.70901599 6.15234375 61.68359375 C3.6608108 61.67356486 1.16927405 61.66443885 -1.32226562 61.65625 C-7.43497866 61.63418048 -13.54755016 61.60069599 -19.66015625 61.55859375 C-19.94890625 60.91019531 -20.23765625 60.26179688 -20.53515625 59.59375 C-21.09203125 58.58634766 -21.09203125 58.58634766 -21.66015625 57.55859375 C-22.98319342 57.18648955 -24.3175356 56.85229202 -25.66015625 56.55859375 C-28.42869823 52.40578078 -27.56388287 49.23583335 -26.66015625 44.55859375 C-25.49796976 39.89408449 -24.15416033 35.2911021 -22.78515625 30.68359375 C-22.07884086 28.2697027 -21.37310393 25.85564232 -20.66796875 23.44140625 C-20.32411133 22.28157227 -19.98025391 21.12173828 -19.62597656 19.92675781 C-18.48949023 15.96341972 -17.49823109 11.97167732 -16.56201172 7.95654297 C-13.31051949 -0.68887032 -8.32240954 -0.14679326 0 0 Z " fill="#17EBD5" transform="translate(158.66015625,41.44140625)"/>
<path d="M0 0 C1.14509033 0.00797607 2.29018066 0.01595215 3.4699707 0.02416992 C14.15743122 0.20392495 24.66717229 1.24930146 34.25 6.375 C35.65457737 9.18415474 35.49895157 11.26310534 35.25 14.375 C34.1875 16.75 34.1875 16.75 32.25 18.375 C27.72975157 19.04822849 24.18875304 18.13859119 19.8125 16.9375 C8.56509668 13.97765702 -5.26500353 12.35876834 -16.09375 17.484375 C-20.86577856 20.28534828 -24.0186768 22.78724098 -25.5625 28.25 C-25.83541241 32.79854024 -24.99662592 35.95340904 -21.96875 39.40625 C-15.08830741 45.51143146 -4.9336809 47.19189338 3.75 49.375 C29.24766826 55.81773989 29.24766826 55.81773989 36.58984375 66.28515625 C40.67201681 73.5923913 40.86744155 81.00907712 38.9609375 89.03125 C36.61153136 96.77654496 31.73827962 101.72607691 25.25 106.375 C8.81423009 114.86112452 -13.50406163 113.24229145 -30.81298828 108.07226562 C-35.1910408 106.49629915 -39.44101739 104.68398261 -42.75 101.375 C-43.2910628 95.42330918 -43.2910628 95.42330918 -41.75 92.4375 C-37.5471816 90.20475272 -33.38968378 90.87606765 -29.015625 92.20703125 C-26.99906372 92.91922948 -24.98347885 93.63419692 -22.96875 94.3515625 C-10.35385553 98.36260904 3.20554555 98.89228784 15.625 94.0625 C19.57977289 91.520146 21.7660861 88.82674171 23.25 84.375 C23.6167299 80.41431703 23.77923029 78.18259866 21.56835938 74.80883789 C14.20867043 67.08255955 0.28435339 65.21790687 -9.68359375 62.50195312 C-22.81099937 58.78026596 -33.45197755 54.36460832 -40.75 42.375 C-43.42710852 34.34367445 -42.51661173 25.07194248 -38.93359375 17.484375 C-33.80607221 8.3462178 -25.41031373 3.78050857 -15.5847168 0.97045898 C-10.40963123 -0.11661652 -5.26871134 -0.06595049 0 0 Z " fill="#666666" transform="translate(316.75,54.625)"/>
<path d="M0 0 C4.63658348 3.51523089 6.16912649 8.57587671 8.23828125 13.80859375 C8.63643539 14.79159454 9.03458954 15.77459534 9.44480896 16.78738403 C10.74361037 20.00032371 12.02807481 23.21878952 13.3125 26.4375 C14.2031321 28.64809591 15.09474038 30.85829877 15.98730469 33.06811523 C17.79371419 37.54433943 19.59472056 42.0226764 21.39111328 46.50292969 C23.79685252 52.50013118 26.22009698 58.49006862 28.65234375 64.4765625 C29.0059346 65.34690628 29.35952545 66.21725006 29.72383118 67.1139679 C30.40497579 68.79036598 31.08617211 70.46674306 31.76742554 72.14309692 C33.32182816 75.97051828 34.87210923 79.79960548 36.421875 83.62890625 C36.68649033 84.28271271 36.95110565 84.93651917 37.22373962 85.61013794 C37.81590317 87.07339424 38.40796511 88.53669165 39 90 C41.7859549 86.67690066 43.24734749 83.2773869 44.828125 79.25390625 C45.09401932 78.58278305 45.35991364 77.91165985 45.63386536 77.22019958 C46.20964589 75.76510851 46.78269252 74.30893329 47.353302 72.85180664 C48.57516584 69.73233832 49.81079907 66.6183837 51.04554749 63.5039978 C51.69526435 61.86480151 52.34429053 60.22533131 52.99266052 58.58560181 C56.31904755 50.17603504 59.69503145 41.78681013 63.08947754 33.4045105 C64.04071009 31.05384673 64.98869754 28.70189253 65.93652344 26.34985352 C75.35353609 3.03902064 75.35353609 3.03902064 79 0 C80.9375 -0.36328125 80.9375 -0.36328125 83 -0.3125 C84.0209375 -0.30669922 84.0209375 -0.30669922 85.0625 -0.30078125 C87 0 87 0 90 2 C91.59650551 7.73944402 90.41237617 11.70002922 88.08203125 16.96484375 C87.75737885 17.7352298 87.43272644 18.50561584 87.09823608 19.29934692 C86.01835908 21.85224113 84.91549084 24.39451714 83.8125 26.9375 C83.04883017 28.73096359 82.28690162 30.5251695 81.52661133 32.32006836 C79.89583638 36.16645964 78.25710863 40.00933841 76.61425781 43.85058594 C73.88490904 50.24993266 71.21511978 56.67331394 68.5546875 63.1015625 C68.10584702 64.18512527 67.65700653 65.26868805 67.19456482 66.38508606 C65.42275955 70.66299884 63.65145531 74.94111841 61.8812561 79.21969604 C60.6464083 82.20106957 59.40766987 85.18079813 58.16796875 88.16015625 C57.8050473 89.03874298 57.44212585 89.91732971 57.06820679 90.82254028 C50.36111224 106.91046528 50.36111224 106.91046528 46 109 C42.94140625 109.46875 42.94140625 109.46875 39.5625 109.5 C38.45003906 109.5309375 37.33757813 109.561875 36.19140625 109.59375 C31.8690595 108.78959246 30.67907142 107.47971345 28 104 C26.22304035 100.78313738 24.79932876 97.44790989 23.375 94.0625 C22.92261963 93.01126953 22.47023926 91.96003906 22.00415039 90.87695312 C20.3160004 86.92618474 18.65470971 82.96486115 17 79 C16.64754211 78.15636902 16.29508423 77.31273804 15.9319458 76.44354248 C11.01907641 64.67660053 6.1536584 52.89076542 1.32637024 41.08847046 C-0.65727416 36.24563413 -2.66018693 31.41280469 -4.71510315 26.59976196 C-5.4785901 24.80949764 -6.23258323 23.01519338 -6.98608398 21.22070312 C-7.83660691 19.19560381 -8.70203292 17.17666168 -9.58618164 15.16601562 C-11.24433469 11.16237294 -12.44467967 8.23288191 -11.35546875 3.93359375 C-9.13184941 -0.87890805 -4.91891487 -1.01162589 0 0 Z " fill="#666666" transform="translate(594,56)"/>
<path d="M0 0 C0.7734375 0.00128906 1.546875 0.00257812 2.34375 0.00390625 C4.99199194 0.53643316 5.86486037 1.31879773 7.5 3.4375 C8.39788024 6.13114071 8.62880141 7.6841818 8.64044189 10.44711304 C8.64900711 11.66671974 8.64900711 11.66671974 8.65774536 12.91096497 C8.65886322 13.79934555 8.65998108 14.68772614 8.66113281 15.60302734 C8.66609772 16.5415303 8.67106262 17.48003326 8.67617798 18.44697571 C8.6907991 21.55580373 8.69760123 24.66458073 8.703125 27.7734375 C8.70887611 29.93193565 8.71463385 32.09043377 8.72039795 34.24893188 C8.73090753 38.7766341 8.73675061 43.30431855 8.74023438 47.83203125 C8.74572161 53.63498714 8.76975485 59.43770869 8.79820633 65.24059105 C8.81682452 69.69982592 8.82203786 74.15900423 8.82357025 78.61827469 C8.82659872 80.75770983 8.83463375 82.89714394 8.84775543 85.03654099 C8.86479996 88.02893699 8.86293956 91.02075881 8.85644531 94.01318359 C8.8656601 94.89751572 8.87487488 95.78184784 8.8843689 96.69297791 C8.8490095 101.89109765 8.36208632 105.57541368 4.5 109.4375 C2.5390625 109.67578125 2.5390625 109.67578125 0.125 109.75 C-0.66648437 109.78738281 -1.45796875 109.82476562 -2.2734375 109.86328125 C-4.5 109.4375 -4.5 109.4375 -6.11489868 108.01477051 C-8.25123241 104.03967507 -7.91740603 100.22061736 -7.88818359 95.77539062 C-7.89344055 94.79612106 -7.89869751 93.8168515 -7.90411377 92.8079071 C-7.9173216 89.56969267 -7.90857271 86.33196947 -7.8984375 83.09375 C-7.900458 80.84460353 -7.90336924 78.5954577 -7.90713501 76.34631348 C-7.91155943 71.63201664 -7.90512336 66.9178903 -7.89111328 62.20361328 C-7.8740215 56.15729451 -7.88386203 50.11137522 -7.90183067 44.06507111 C-7.91266521 39.42056258 -7.90922365 34.77614894 -7.9014473 30.13163757 C-7.89944438 27.9020737 -7.90190774 25.67250124 -7.90888596 23.44294739 C-7.91649482 20.32826884 -7.90490369 17.21423951 -7.88818359 14.09960938 C-7.89425629 13.17585007 -7.90032898 12.25209076 -7.90658569 11.30033875 C-7.84460197 5.0755862 -7.84460197 5.0755862 -6.11050415 1.86462402 C-3.99880963 -0.00662231 -2.79446243 -0.06986156 0 0 Z " fill="#666666" transform="translate(709.5,55.5625)"/>
<path d="M0 0 C0.7734375 -0.00773437 1.546875 -0.01546875 2.34375 -0.0234375 C5.04894491 0.47643547 5.79901544 1.24329387 7.5 3.375 C7.87752342 5.34435272 7.87752342 5.34435272 7.88095093 7.62585449 C7.8894104 8.49230087 7.89786987 9.35874725 7.90658569 10.25144958 C7.900513 11.19907669 7.89444031 12.1467038 7.88818359 13.12304688 C7.89344055 14.12328384 7.89869751 15.12352081 7.90411377 16.15406799 C7.91734073 19.46745318 7.90856595 22.78035975 7.8984375 26.09375 C7.90045745 28.39156181 7.90336823 30.689373 7.90713501 32.98718262 C7.91156203 37.80580746 7.90511503 42.62426561 7.89111328 47.44287109 C7.87402136 53.62719744 7.8838605 59.81113324 7.90183067 65.99544525 C7.91265822 70.74113928 7.90922687 75.48674034 7.9014473 80.23243713 C7.89944245 82.51306708 7.9019145 84.79370539 7.90888596 87.07432556 C7.91648336 90.25876304 7.90491983 93.44256325 7.88818359 96.62695312 C7.89729263 98.04839378 7.89729263 98.04839378 7.90658569 99.49855042 C7.89389648 100.79821999 7.89389648 100.79821999 7.88095093 102.12414551 C7.87981985 102.87704109 7.87868877 103.62993668 7.87752342 104.40564728 C7.39494152 106.92303806 6.49646548 107.81443793 4.5 109.375 C2.34375 109.7734375 2.34375 109.7734375 0 109.75 C-1.16015625 109.76160156 -1.16015625 109.76160156 -2.34375 109.7734375 C-5.04894491 109.27356453 -5.79901544 108.50670613 -7.5 106.375 C-7.87752342 104.40564728 -7.87752342 104.40564728 -7.88095093 102.12414551 C-7.8894104 101.25769913 -7.89786987 100.39125275 -7.90658569 99.49855042 C-7.900513 98.55092331 -7.89444031 97.6032962 -7.88818359 96.62695312 C-7.89344055 95.62671616 -7.89869751 94.62647919 -7.90411377 93.59593201 C-7.91734073 90.28254682 -7.90856595 86.96964025 -7.8984375 83.65625 C-7.90045745 81.35843819 -7.90336823 79.060627 -7.90713501 76.76281738 C-7.91156203 71.94419254 -7.90511503 67.12573439 -7.89111328 62.30712891 C-7.87402136 56.12280256 -7.8838605 49.93886676 -7.90183067 43.75455475 C-7.91265822 39.00886072 -7.90922687 34.26325966 -7.9014473 29.51756287 C-7.89944245 27.23693292 -7.9019145 24.95629461 -7.90888596 22.67567444 C-7.91648336 19.49123696 -7.90491983 16.30743675 -7.88818359 13.12304688 C-7.89425629 12.17541977 -7.90032898 11.22779266 -7.90658569 10.25144958 C-7.89812622 9.3850032 -7.88966675 8.51855682 -7.88095093 7.62585449 C-7.87981985 6.87295891 -7.87868877 6.12006332 -7.87752342 5.34435272 C-7.02792847 0.9124366 -4.1372691 -0.04137269 0 0 Z " fill="#666666" transform="translate(244.5,55.625)"/>
<path d="M0 0 C8.58 0 17.16 0 26 0 C26 17.82 26 35.64 26 54 C17.42 54 8.84 54 0 54 C0 36.18 0 18.36 0 0 Z " fill="#3EBCC3" transform="translate(114,132)"/>
<path d="M0 0 C8.58 0 17.16 0 26 0 C26 17.82 26 35.64 26 54 C17.42 54 8.84 54 0 54 C0 36.18 0 18.36 0 0 Z " fill="#36C5AD" transform="translate(74,37)"/>
<path d="M0 0 C0.88973511 -0.00511093 1.77947021 -0.01022186 2.69616699 -0.01548767 C5.6427276 -0.02940823 8.58905491 -0.02842488 11.53564453 -0.02612305 C13.58204231 -0.03000896 15.62843928 -0.03434341 17.67483521 -0.03910828 C21.96716932 -0.04657604 26.25942119 -0.04627542 30.55175781 -0.04101562 C36.05207121 -0.0352239 41.55204755 -0.05214223 47.05230522 -0.0753603 C51.27993742 -0.09009437 55.50748843 -0.09096971 59.73514175 -0.08785057 C61.76292716 -0.08836407 63.79071709 -0.09360708 65.81847763 -0.10366249 C68.65524916 -0.1160015 71.49136395 -0.10925007 74.328125 -0.09765625 C75.16570343 -0.10529999 76.00328186 -0.11294373 76.86624146 -0.12081909 C81.45919192 -0.07933734 84.59699892 0.22221163 88.29345703 3.2746582 C88.29345703 3.9346582 88.29345703 4.5946582 88.29345703 5.2746582 C86.57457527 5.28345757 86.57457527 5.28345757 84.82096863 5.29243469 C74.03482984 5.34958597 63.24889415 5.42230757 52.46296215 5.51037312 C46.91746148 5.55514818 41.37203549 5.5943885 35.82641602 5.62109375 C30.47706746 5.64705559 25.12800522 5.68740725 19.77883339 5.73784447 C17.73548245 5.75456147 15.69208194 5.76604554 13.6486721 5.77227211 C10.79192281 5.78186074 7.93591406 5.80985674 5.0793457 5.84228516 C3.80512253 5.84013252 3.80512253 5.84013252 2.50515747 5.8379364 C-1.75049144 5.76951448 -1.75049144 5.76951448 -5.38976574 7.65846539 C-7.13652827 9.80241578 -7.68790305 11.73842375 -8.45654297 14.3996582 C-8.79685547 15.5649707 -9.13716797 16.7302832 -9.48779297 17.9309082 C-9.89582619 19.37832336 -10.30188941 20.82629456 -10.70654297 22.2746582 C-10.94888672 23.13961914 -11.19123047 24.00458008 -11.44091797 24.89575195 C-12.58194257 28.97323694 -13.72104072 33.05123477 -14.85351562 37.13110352 C-17.0908608 45.16472264 -19.43933646 53.16093264 -21.83154297 61.1496582 C-24.82825657 71.16879967 -27.61108417 81.21991738 -30.20166016 91.35083008 C-30.98623584 94.34041246 -31.84411994 97.30667986 -32.70654297 100.2746582 C-35.57378983 99.70120883 -36.56799447 99.4132067 -38.70654297 97.2746582 C-38.4112073 89.4625533 -35.79924746 81.99008499 -33.64404297 74.5246582 C-33.23822036 73.10204456 -32.83295512 71.67927182 -32.42822266 70.25634766 C-31.19497394 65.92700712 -29.95130659 61.60069925 -28.70654297 57.2746582 C-27.62576361 53.51260611 -26.54622646 49.75019851 -25.4675293 45.98754883 C-24.798271 43.65379132 -24.12755609 41.32045099 -23.45532227 38.98754883 C-21.98735649 33.86985637 -20.55121234 28.75079597 -19.23779297 23.59106445 C-19.01768555 22.72650635 -18.79757813 21.86194824 -18.57080078 20.97119141 C-18.18097837 19.41856406 -17.79915136 17.86388983 -17.42822266 16.30664062 C-14.7174502 5.43930188 -11.94398256 -0.03515836 0 0 Z " fill="#999999" transform="translate(93.70654296875,110.725341796875)"/>
<path d="M0 0 C3.14003713 -0.28599346 6.08188693 -0.37784161 9.22314453 -0.34057617 C10.65735748 -0.34123329 10.65735748 -0.34123329 12.12054443 -0.34190369 C15.29150579 -0.33980806 18.46194313 -0.31644045 21.6328125 -0.29296875 C23.82713533 -0.28737555 26.02146189 -0.28310415 28.21578979 -0.28010559 C33.99943329 -0.26863511 39.78285182 -0.23914893 45.56640625 -0.20599365 C51.46481279 -0.17534023 57.36325557 -0.16161037 63.26171875 -0.14648438 C74.84124484 -0.11428139 86.42060373 -0.06305843 98 0 C98.99 1.98 98.99 1.98 100 4 C52.975 4.495 52.975 4.495 5 5 C4.01 8.96 3.02 12.92 2 17 C1.08482541 20.15568604 0.15429284 23.29820893 -0.8125 26.4375 C-5.10260551 40.56349012 -9.17408956 54.74484718 -12.92578125 69.0234375 C-14.51741453 74.99401092 -16.25642525 80.92457351 -17.98242188 86.85742188 C-18.22927734 87.71142578 -18.47613281 88.56542969 -18.73046875 89.4453125 C-18.95114014 90.20344238 -19.17181152 90.96157227 -19.39916992 91.74267578 C-20.03897314 94.14642246 -20.53606876 96.55675445 -21 99 C-22.875 98.6875 -22.875 98.6875 -25 98 C-27.28203409 94.57694886 -27.07348215 93.2118053 -26.45849609 89.27050781 C-25.64361279 85.23514322 -24.49351543 81.31620012 -23.3125 77.375 C-22.76314668 75.49773964 -22.21500591 73.6201241 -21.66796875 71.7421875 C-21.38872559 70.78666992 -21.10948242 69.83115234 -20.82177734 68.84667969 C-19.5412304 64.4107981 -18.33097483 59.95663079 -17.125 55.5 C-16.63030658 53.6796608 -16.13551146 51.85934923 -15.640625 50.0390625 C-15.38087891 49.08290039 -15.12113281 48.12673828 -14.85351562 47.14160156 C-14.57185547 46.10487305 -14.29019531 45.06814453 -14 44 C-13.67708984 42.81116211 -13.35417969 41.62232422 -13.02148438 40.39746094 C-11.97614053 36.55567466 -10.92594098 32.71525852 -9.875 28.875 C-9.55031738 27.67810547 -9.22563477 26.48121094 -8.89111328 25.24804688 C-3.34195885 5.01293827 -3.34195885 5.01293827 0 0 Z " fill="#999A99" transform="translate(47,0)"/>
<path d="M0 0 C4.8318697 2.58812891 7.72861863 5.87304728 10.24609375 10.65625 C11.96326418 16.66634649 11.14452474 21.13830676 8.1953125 26.48828125 C5.17590038 31.00264661 1.22206829 33.17575539 -4.00390625 34.28125 C-10.03083142 34.37880814 -14.33644449 33.29743803 -19.00390625 29.28125 C-23.06028979 23.90928261 -24.55731879 20.03288305 -24.00390625 13.28125 C-22.04836585 7.39227975 -19.03435023 3.81326386 -14.00390625 0.28125 C-9.41328016 -1.2489587 -4.62850487 -1.6601265 0 0 Z " fill="#11FAAD" transform="translate(763.00390625,130.71875)"/>
<path d="M0 0 C0.94785873 -0.00960754 1.89571747 -0.01921509 2.87229919 -0.02911377 C3.89420853 -0.03336365 4.91611786 -0.03761353 5.96899414 -0.04199219 C7.54651207 -0.0505423 7.54651207 -0.0505423 9.15589905 -0.05926514 C11.38094069 -0.06871325 13.60599632 -0.07524837 15.83105469 -0.07910156 C19.23730776 -0.08881914 22.64296052 -0.11984964 26.04907227 -0.15136719 C28.20987597 -0.15789611 30.37068399 -0.16314702 32.53149414 -0.16699219 C33.55137924 -0.17933899 34.57126434 -0.19168579 35.62205505 -0.20440674 C37.0485714 -0.19990509 37.0485714 -0.19990509 38.50390625 -0.1953125 C39.75608192 -0.20078094 39.75608192 -0.20078094 41.03355408 -0.20635986 C43.85418218 0.24765522 45.25310445 1.21475568 47.31665039 3.16113281 C47.31665039 3.82113281 47.31665039 4.48113281 47.31665039 5.16113281 C46.44674469 5.17326309 46.44674469 5.17326309 45.55926514 5.18563843 C39.52455676 5.27167974 33.49017702 5.37118326 27.45581055 5.47851562 C25.20358803 5.51680438 22.95130439 5.55165742 20.69897461 5.58300781 C17.46193592 5.62866019 14.22531803 5.68665496 10.98852539 5.74707031 C9.47739166 5.76439713 9.47739166 5.76439713 7.93572998 5.78207397 C6.52472015 5.81187851 6.52472015 5.81187851 5.08520508 5.84228516 C4.25913757 5.85560883 3.43307007 5.8689325 2.58197021 5.88265991 C0.05358234 6.19347144 -1.55408452 6.7671464 -3.68334961 8.16113281 C-4.94544936 11.13508198 -4.94544936 11.13508198 -5.74584961 14.66113281 C-6.04620117 15.82644531 -6.34655273 16.99175781 -6.65600586 18.19238281 C-6.81488281 18.82120361 -6.97375977 19.45002441 -7.13745117 20.09790039 C-7.97477935 23.26259646 -8.93734479 26.38759025 -9.88720703 29.52001953 C-11.23545667 33.99268575 -12.52160516 38.48295933 -13.80834961 42.97363281 C-14.07260742 43.88822266 -14.33686523 44.8028125 -14.60913086 45.74511719 C-14.86307617 46.63134766 -15.11702148 47.51757812 -15.37866211 48.43066406 C-15.60569824 49.22061768 -15.83273438 50.01057129 -16.06665039 50.82446289 C-16.7082621 53.2555261 -17.21452166 55.69144345 -17.68334961 58.16113281 C-19.33334961 57.50113281 -20.98334961 56.84113281 -22.68334961 56.16113281 C-24.42185815 49.32299923 -22.52530487 44.0069447 -20.43334961 37.41113281 C-19.80222163 35.35412309 -19.17200824 33.29683251 -18.54272461 31.23925781 C-18.23077148 30.23121094 -17.91881836 29.22316406 -17.59741211 28.18457031 C-16.19228394 23.53683866 -14.93578187 18.85182891 -13.68334961 14.16113281 C-13.18428462 12.32754473 -12.68440505 10.49417797 -12.18334961 8.66113281 C-11.96678711 7.86707031 -11.75022461 7.07300781 -11.52709961 6.25488281 C-10.58112686 3.90746895 -9.64768717 2.74030615 -7.68334961 1.16113281 C-4.81645952 0.20550278 -2.97892726 0.02438898 0 0 Z " fill="#999A99" transform="translate(23.683349609375,110.8388671875)"/>
<path d="M0 0 C1.71212929 0.00349709 1.71212929 0.00349709 3.45884705 0.00706482 C5.87050861 0.01680451 8.2821472 0.0385964 10.69360352 0.0715332 C14.39178192 0.12095261 18.08863056 0.13301408 21.78710938 0.13867188 C24.12892045 0.15275716 26.47071994 0.1689613 28.8125 0.1875 C29.92190445 0.1928627 31.0313089 0.1982254 32.17433167 0.20375061 C33.20227341 0.21973801 34.23021515 0.2357254 35.28930664 0.25219727 C36.64687828 0.26815697 36.64687828 0.26815697 38.03187561 0.28443909 C40.33984375 0.55859375 40.33984375 0.55859375 43.33984375 2.55859375 C43.33984375 3.21859375 43.33984375 3.87859375 43.33984375 4.55859375 C44.32984375 5.05359375 44.32984375 5.05359375 45.33984375 5.55859375 C28.17984375 5.88859375 11.01984375 6.21859375 -6.66015625 6.55859375 C-9.39711856 12.71675895 -11.53349827 18.08032574 -13.09765625 24.49609375 C-13.51699282 26.15395904 -13.93760041 27.81150328 -14.359375 29.46875 C-14.67720947 30.72582764 -14.67720947 30.72582764 -15.00146484 32.00830078 C-16.27054895 36.92188586 -17.66323149 41.80150516 -19.04858398 46.68334961 C-20.06348574 50.28934836 -20.99491188 53.87082603 -21.66015625 57.55859375 C-23.53515625 57.24609375 -23.53515625 57.24609375 -25.66015625 56.55859375 C-28.42869823 52.40578078 -27.56388287 49.23583335 -26.66015625 44.55859375 C-25.49796976 39.89408449 -24.15416033 35.2911021 -22.78515625 30.68359375 C-22.07884086 28.2697027 -21.37310393 25.85564232 -20.66796875 23.44140625 C-20.32411133 22.28157227 -19.98025391 21.12173828 -19.62597656 19.92675781 C-18.48949023 15.96341972 -17.49823109 11.97167732 -16.56201172 7.95654297 C-13.31051949 -0.68887032 -8.32240954 -0.14679326 0 0 Z " fill="#999E9D" transform="translate(158.66015625,41.44140625)"/>
<path d="M0 0 C1.6328125 0.90234375 1.6328125 0.90234375 3.7578125 3.33984375 C4.3828125 6.90234375 4.3828125 6.90234375 3.7578125 10.33984375 C-0.19133144 14.42516506 -4.67835012 14.54310706 -10.1171875 14.65234375 C-11.33148438 14.68972656 -12.54578125 14.72710937 -13.796875 14.765625 C-17.84907642 14.26484274 -19.44676719 13.2706103 -22.2421875 10.33984375 C-22.9296875 6.83984375 -22.9296875 6.83984375 -22.2421875 3.33984375 C-17.00538532 -2.6670764 -7.19282058 -2.11774682 0 0 Z " fill="#33C8A6" transform="translate(96.2421875,20.66015625)"/>
<path d="M0 0 C1.77697266 0.00193359 1.77697266 0.00193359 3.58984375 0.00390625 C7.5177066 0.49433682 11.18178786 1.55678786 14.0625 4.4375 C14.375 7.8125 14.375 7.8125 14.0625 11.4375 C11.25410216 14.34273914 8.37817332 15.33877704 4.35546875 15.640625 C-5.96629079 15.79642514 -5.96629079 15.79642514 -10.9375 12.4375 C-11.9375 11.4375 -11.9375 11.4375 -12.3125 8.125 C-11.9375 4.4375 -11.9375 4.4375 -9.84765625 2.234375 C-6.2945775 0.04052772 -4.14937751 -0.06757944 0 0 Z " fill="#40B9CB" transform="translate(125.9375,187.5625)"/>
<path d="M0 0 C1.46566406 -0.00386719 1.46566406 -0.00386719 2.9609375 -0.0078125 C3.98445312 -0.00007813 5.00796875 0.00765625 6.0625 0.015625 C7.08601562 0.00789063 8.10953125 0.00015625 9.1640625 -0.0078125 C10.14117188 -0.00523438 11.11828125 -0.00265625 12.125 0 C13.02347656 0.00225586 13.92195312 0.00451172 14.84765625 0.00683594 C17.0625 0.265625 17.0625 0.265625 19.0625 2.265625 C19.328125 4.140625 19.328125 4.140625 19.3125 6.265625 C19.31765625 6.966875 19.3228125 7.668125 19.328125 8.390625 C19.0625 10.265625 19.0625 10.265625 17.0625 12.265625 C14.84765625 12.52441406 14.84765625 12.52441406 12.125 12.53125 C11.14789062 12.53382812 10.17078125 12.53640625 9.1640625 12.5390625 C8.14054688 12.53132813 7.11703125 12.52359375 6.0625 12.515625 C5.03898438 12.52335937 4.01546875 12.53109375 2.9609375 12.5390625 C1.98382812 12.53648438 1.00671875 12.53390625 0 12.53125 C-0.89847656 12.52899414 -1.79695312 12.52673828 -2.72265625 12.52441406 C-4.9375 12.265625 -4.9375 12.265625 -6.9375 10.265625 C-7.203125 8.390625 -7.203125 8.390625 -7.1875 6.265625 C-7.19265625 5.564375 -7.1978125 4.863125 -7.203125 4.140625 C-6.58773162 -0.20332826 -3.6640849 0.00919964 0 0 Z " fill="#01FBAD" transform="translate(703.9375,31.734375)"/>
<path d="M0 0 C1.46566406 -0.00386719 1.46566406 -0.00386719 2.9609375 -0.0078125 C3.98445312 -0.00007813 5.00796875 0.00765625 6.0625 0.015625 C7.08601562 0.00789063 8.10953125 0.00015625 9.1640625 -0.0078125 C10.14117187 -0.00523438 11.11828125 -0.00265625 12.125 0 C13.02347656 0.00225586 13.92195313 0.00451172 14.84765625 0.00683594 C17.0625 0.265625 17.0625 0.265625 19.0625 2.265625 C19.328125 4.140625 19.328125 4.140625 19.3125 6.265625 C19.31765625 6.966875 19.3228125 7.668125 19.328125 8.390625 C19.0625 10.265625 19.0625 10.265625 17.0625 12.265625 C14.84765625 12.52441406 14.84765625 12.52441406 12.125 12.53125 C11.14789063 12.53382812 10.17078125 12.53640625 9.1640625 12.5390625 C8.14054688 12.53132813 7.11703125 12.52359375 6.0625 12.515625 C5.03898438 12.52335937 4.01546875 12.53109375 2.9609375 12.5390625 C1.98382813 12.53648438 1.00671875 12.53390625 0 12.53125 C-0.89847656 12.52899414 -1.79695312 12.52673828 -2.72265625 12.52441406 C-4.9375 12.265625 -4.9375 12.265625 -6.9375 10.265625 C-7.203125 8.390625 -7.203125 8.390625 -7.1875 6.265625 C-7.19265625 5.564375 -7.1978125 4.863125 -7.203125 4.140625 C-6.58773162 -0.20332826 -3.6640849 0.00919964 0 0 Z " fill="#0AEFC7" transform="translate(238.9375,30.734375)"/>
</svg>
