<svg id="Graphics" xmlns="http://www.w3.org/2000/svg" viewBox="0 0 342.53 249.21"><defs><style>.cls-1{fill:#047634;}.cls-2{fill:#007484;}.cls-3{fill:#006586;}.cls-4{fill:#008bbd;}.cls-5{fill:#006d99;}.cls-6{fill:#008ea5;}.cls-7{fill:#109cd5;}.cls-8{fill:#065c98;}.cls-9{fill:#007fb6;}.cls-10{fill:#007992;}.cls-11{fill:#008a38;}.cls-12{fill:#007b35;}.cls-13{fill:#378c35;}.cls-14{fill:#046b31;}.cls-15{fill:#008337;}.cls-16{fill:#76ae2c;}.cls-17{fill:#459b35;}.cls-18{fill:#2c9f37;}.cls-19{fill:#009439;}.cls-20{fill:#65a930;}.cls-21{fill:#007e36;}.cls-22{fill:#1a9c38;}.cls-23{fill:#42a235;}.cls-24{fill:#7db329;}.cls-25{fill:#34a344;}.cls-26{fill:#97bc1f;}.cls-27{fill:#0099a5;}.cls-28{fill:#1a97a1;}.cls-29{fill:#008e98;}.cls-30{fill:#00858f;}.cls-31{fill:#007d80;}.cls-32{fill:#00a2af;}.cls-33{fill:#0ea1ae;}.cls-34{fill:#009ca7;}.cls-35{fill:#00adbb;}.cls-36{fill:#00909a;}</style></defs><polygon class="cls-1" points="0 107.7 9.04 140.94 25.36 69.12 0 107.7"/><polygon class="cls-2" points="340.5 121.85 284.47 156.9 313.11 173.97 340.5 121.85"/><polygon class="cls-3" points="282.67 159.19 271.1 210.56 311.22 176.2 282.67 159.19"/><polygon class="cls-4" points="232.56 217.96 267.56 213.18 278.99 162.42 232.56 217.96"/><polygon class="cls-5" points="211.16 177.21 229.44 217.21 277.69 159.49 211.16 177.21"/><polygon class="cls-6" points="152.86 160.16 96.31 173.14 135.66 202.66 152.86 160.16"/><polygon class="cls-7" points="206.44 176.86 158.42 160.73 181.79 200.61 206.44 176.86"/><polygon class="cls-8" points="232.87 220.82 272.76 249.21 267.54 216.09 232.87 220.82"/><polygon class="cls-9" points="226.35 217.38 208.68 178.7 184.15 202.34 226.35 217.38"/><polygon class="cls-10" points="138.47 203.39 179.03 201.58 155.47 161.39 138.47 203.39"/><path class="cls-11" d="M284.12,206.94l-30.23-44L236,241.73l43-25.25a11.47,11.47,0,0,1,5.14-9.54Z" transform="translate(-224.69 -97.78)"/><path class="cls-12" d="M318.53,172.18l-62.2-10.72,30.39,44.19a11.57,11.57,0,0,1,6.09-.38l25.72-33.09Z" transform="translate(-224.69 -97.78)"/><polygon class="cls-13" points="94.75 71.63 86.94 17.15 31.94 60.81 94.75 71.63"/><path class="cls-14" d="M347.55,219.21,321,173.73l-25.3,32.55a11.52,11.52,0,0,1,5.76,6.81l43,9a11.32,11.32,0,0,1,3.09-2.84Z" transform="translate(-224.69 -97.78)"/><path class="cls-15" d="M374.09,145.52l-50.94,26.23,27,46.24a11.57,11.57,0,0,1,3.3-.53l20.62-71.94Z" transform="translate(-224.69 -97.78)"/><polygon class="cls-16" points="261.3 53.67 297.76 36.69 225.85 7.14 261.3 53.67"/><polygon class="cls-17" points="148.47 44.99 89.81 16.92 97.59 71.19 148.47 44.99"/><polygon class="cls-18" points="266.2 54.57 322.57 60.34 301.03 38.34 266.2 54.57"/><path class="cls-19" d="M408.92,185.75,377,145.8l-20.63,72a11.61,11.61,0,0,1,3.74,1.68l44.32-24.87A11.47,11.47,0,0,1,408.92,185.75Z" transform="translate(-224.69 -97.78)"/><polygon class="cls-20" points="156.75 0.15 92.34 14.94 150.56 42.8 156.75 0.15"/><path class="cls-21" d="M491.24,199.05,547,161,487,154.84l-.87,42.74a11.41,11.41,0,0,1,5.16,1.47Z" transform="translate(-224.69 -97.78)"/><path class="cls-22" d="M430.88,160.61,380.4,145.43l31,38.84a11.48,11.48,0,0,1,5.76-.84l13.7-22.82Z" transform="translate(-224.69 -97.78)"/><polygon class="cls-23" points="210.23 60.3 258.2 54.35 222.22 7.12 210.23 60.3"/><polygon class="cls-24" points="204.44 59.3 159.41 1.81 153.31 43.92 204.44 59.3"/><path class="cls-19" d="M436.4,160.8l43.27,38.42a11.46,11.46,0,0,1,3.52-1.39l.88-43L436.4,160.8Z" transform="translate(-224.69 -97.78)"/><path class="cls-25" d="M427,191.71l49.41,10.51a11.42,11.42,0,0,1,1-1.18l-44-39-13.29,22.16a11.51,11.51,0,0,1,6.86,7.56Z" transform="translate(-224.69 -97.78)"/><polygon class="cls-26" points="161.65 0 207.64 58.71 219.73 5.08 161.65 0"/><path class="cls-27" d="M296.34,226.38,318,267.84l29.82-29a11.56,11.56,0,0,1-5.06-6.09l-43.4-9.05a11.77,11.77,0,0,1-3.06,2.65Z" transform="translate(-224.69 -97.78)"/><path class="cls-28" d="M549.29,173.13,497.1,208.76v.3a11.48,11.48,0,0,1-6.17,10.18l15.54,32.32Z" transform="translate(-224.69 -97.78)"/><path class="cls-29" d="M273.49,276l42-6.85L293.7,227.54a11.57,11.57,0,0,1-3.07.46l-17.14,48Z" transform="translate(-224.69 -97.78)"/><polygon class="cls-30" points="342.53 117.18 328.4 74.39 285.6 152.8 342.53 117.18"/><path class="cls-31" d="M238.86,253.38l31.73,22.13,17.1-47.84a11.39,11.39,0,0,1-3-1.22l-45.84,26.93Z" transform="translate(-224.69 -97.78)"/><path class="cls-32" d="M376.88,255.14l-18-16a11.63,11.63,0,0,1-8.13.9l-28.41,27.59,54.53-12.52Z" transform="translate(-224.69 -97.78)"/><path class="cls-33" d="M438.06,271.41l66.28-17.64-16.12-33.52a11.6,11.6,0,0,1-5,0l-45.15,51.13Z" transform="translate(-224.69 -97.78)"/><path class="cls-34" d="M382.14,255.15l49.72,16.7-14.79-65.57a11.59,11.59,0,0,1-3-.09l-31.93,49Z" transform="translate(-224.69 -97.78)"/><path class="cls-35" d="M410,204.69,365.09,229.9a11.44,11.44,0,0,1-3.77,7.58l18.31,16.25,31.57-48.41a12.08,12.08,0,0,1-1.18-.63Z" transform="translate(-224.69 -97.78)"/><path class="cls-36" d="M419.87,205.63,434.62,271l45.68-51.73a11.55,11.55,0,0,1-5.5-6.3l-50.13-10.66a11.55,11.55,0,0,1-4.8,3.35Z" transform="translate(-224.69 -97.78)"/></svg>